<svg id="Layer_1" enable-background="new 0 0 5000 5000" height="80" viewBox="0 0 5000 5000" width="80" xmlns="http://www.w3.org/2000/svg"><g><path d="m1333.06 2893.498c14.328 1.918 48.334 13.704 48.334 27.745l-3.321 448.455c0 286.625 216.115 518.98 511.386 518.98h278.28s137.005 9.941 160.035 78.5c12.729 37.897 38.696 71.011 38.972 113.447.381 58.91 47.822 107.21 108.509 107.21h884.051c60.293 0 109.171-47.446 109.171-105.975v-357.983c0-179.657 44.648-359.106 129.125-518.953l90.824-171.861c.214-.409 228.225-390.59 161.248-967.373-33.431-287.9-69.848-506.433-70.429-508.588-.125-.451-.235-.908-.336-1.365-.435-2.006-46.346-205.549-220.371-403.224-101.772-115.607-227.008-206.798-372.229-271.038-182.185-80.594-396.818-118.901-637.948-113.931-413.932 8.574-707.068 101.792-917.125 277.067-163.884 136.749-254.127 321.121-254.104 519.154v249.466c.613 2.272-22.309 533.988-22.309 533.988 0 5.194-218.651 353.874-218.651 353.874-3.273 9.471-35.532 53.414-9.366 96.518 29.51 48.613 100.831 81.77 206.254 95.887z" fill="#fff"/><g><g><path d="m3849.673 2065.693c-33.431-287.9-69.849-506.433-70.43-508.589-.125-.45-.236-.908-.335-1.365-.435-2.006-46.346-205.549-220.37-403.224-101.773-115.606-227.009-206.797-372.229-271.037-182.185-80.595-396.819-118.902-637.95-113.932-413.93 8.574-707.068 101.793-917.123 277.067-163.884 136.749-254.127 321.122-254.105 519.153v249.466c.613 2.272-22.308 533.987-22.308 533.987 0 5.195-218.651 353.876-218.651 353.876-3.273 9.469-35.532 53.413-9.366 96.517 29.51 48.612 100.83 81.768 206.253 95.885 14.328 1.919 48.335 13.704 48.335 27.744l-3.321 448.456c0 286.625 216.115 518.98 511.386 518.98h278.28s137.004 9.941 160.034 78.501c12.729 37.896 38.697 71.011 38.972 113.448.382 58.909 47.822 107.209 108.509 107.209h884.051c60.293 0 109.171-47.446 109.171-105.974v-357.984c0-179.656 44.649-359.106 129.126-518.953l90.823-171.862c.213-.406 228.224-390.587 161.248-967.369z" fill="#fff"/></g><g><path d="m2068.011 2980.824-51.97-62.388c-6.837-8.206-6.837-21.561 0-29.769l76.469-49.859c6.836-8.206 26.76-25.5 33.596-17.294l41.006-127.607c0-11.607 106.538-11.477 116.208-11.477l78.586 2.583c9.668 0 17.536 9.444 17.536 21.05v88.27c0 12.721 40.167 39.087 50.318 42.733 20.045 7.199 109.956-64.253 109.956-64.253 6.835-8.206 17.962-8.206 24.797 0l103.186 115.854c6.837 8.208 6.837 21.563 0 29.769l-51.97 62.388c-7.497 9.001-9.181 22.842-4.142 34.039 9.797 21.769 17.801 44.999 23.788 69.042 3.037 12.189 12.377 13.898 22.975 13.898h73.53c9.668 0 17.535 16.084 17.535 27.691v141.135c0 11.608-7.866 21.05-17.535 21.05h-73.53c-10.598 0-19.938 8.352-22.975 20.541-5.987 24.039-13.99 33.982-23.788 55.751-5.039 11.198-3.355 25.04 4.142 34.04l51.97 62.39c6.838 8.209 6.838 21.563.001 29.77l-101.753 117.614c-6.625 7.953-18.172 7.953-24.797 0 0 0-91.354-73.207-111.387-66.018-10.153 3.644-50.323 14.858-50.323 27.581v88.273c0 11.607-8.159 35.917-17.827 35.917l-187.22 4.16c-9.67 0-17.535-9.445-17.535-21.052v-88.273c0-12.722-6.957-23.937-17.111-27.581-20.032-7.189-57.54 2.364-64.165-5.589l-59.544-65.032c-6.837-8.208-6.837-21.563-.001-29.77l51.973-62.39c7.496-9 9.179-22.842 4.141-34.04-9.798-21.769-17.801-44.997-23.788-69.036-3.037-12.189-12.377-20.541-22.975-20.541h-73.529c-9.668 0-17.536-9.442-17.536-21.05v-127.85c0-11.607 7.868-21.049 17.536-21.049h73.529c10.598 0 19.938-8.352 22.975-20.541 5.987-24.044 13.991-47.274 23.788-69.042 5.041-11.196 3.358-25.038-4.14-34.038z" fill="#bac5ff"/></g><g><path d="m3169.089 1711.028c77.806-2.741 117.009-66.737 117.009-161.505l4.944-367.507c176.338 64.273 330.182 274.126 330.182 461.958 0 171.76-117.587 337.021-248.062 415.25-8.202 4.919-13.365 14.823-13.365 25.64v793.201c0 105.183-36.326 180.792-125.884 180.792s-162.419-85.573-162.419-190.756v-365.234c0-.032.008-.062.008-.096s-.008-.063-.008-.096v-427.775c0-10.817-5.163-20.721-13.365-25.64-130.475-78.23-211.527-233.526-211.527-405.286 0-46.967 5.994-92.499 17.265-135.453.761-2.001 1.379-4.064 1.736-6.203 54.636-130.781 77.708-170.333 145.277-213.181l-11.536 296.643c0 46.636 38.144 90.879 75.809 112.065 26.367 14.831 54.162 14.55 93.936 13.183z" fill="#bac5ff"/></g><g><circle cx="2260.163" cy="3189.419" fill="#fff" r="157.823"/></g><g><path d="m1893.287 2473.982c-60.432 0-113.497-35.463-141.946-94.864-28.448-59.399-25.344-128.252 8.303-184.18l544.558-905.133c30.375-50.488 79.086-79.446 133.641-79.446 54.556 0 70.055 28.958 100.429 79.446l127.248 211.505c-11.88 45.847-17.964 93.72-17.964 142.663 0 187.563 123.648 357.696 270.292 448.214v381.795z" fill="#ffd55e"/></g><g><path d="m2355.638 2328.762c-23.7 0-42.983-19.282-42.983-42.984 0-23.7 19.282-42.983 42.983-42.983s42.983 19.282 42.983 42.983-19.283 42.984-42.983 42.984z" fill="#ff9194"/></g><g><path d="m2383.752 2049.17c-2.898 25.585-25.844 26.707-30.091 26.772-4.517-.016-27.185-1.401-29.882-27.004l-49.431-469.269c.749-44.186 36.927-79.903 81.29-79.903 44.327 0 80.482 35.662 81.288 79.799z" fill="#ff9194"/></g><g><g><g><path d="m2324.087 3736.248h-127.85c-43.354 0-78.624-35.271-78.624-78.625v-67.405c-13.673-4.852-27.064-10.389-40.086-16.573l-47.637 47.639c-14.85 14.852-34.595 23.031-55.597 23.031s-40.746-8.178-55.597-23.031l-90.401-90.401c-30.656-30.656-30.656-80.536 0-111.192l47.64-47.64c-6.184-13.021-11.724-26.415-16.574-40.083h-67.403c-43.354 0-78.625-35.27-78.625-78.624v-127.85c0-43.352 35.271-78.622 78.625-78.622h67.403c4.851-13.671 10.389-27.065 16.574-40.088l-47.639-47.637c-30.656-30.656-30.656-80.537-.002-111.193l90.402-90.399c14.849-14.85 34.593-23.029 55.595-23.029s40.746 8.178 55.597 23.029l47.637 47.639c13.019-6.182 26.412-11.72 40.086-16.574v-67.403c0-43.354 35.27-78.624 78.624-78.624h127.85c43.354 0 78.624 35.27 78.624 78.624v67.403c13.675 4.854 27.069 10.392 40.086 16.574l47.637-47.639c14.85-14.85 34.595-23.029 55.597-23.029 21.001 0 40.746 8.178 55.597 23.029l90.399 90.399c14.85 14.85 23.029 34.595 23.029 55.597 0 21.001-8.178 40.746-23.029 55.596l-47.639 47.637c6.186 13.022 11.722 26.417 16.574 40.088h67.403c43.354 0 78.624 35.27 78.624 78.622v127.85c0 43.354-35.27 78.624-78.624 78.624h-67.403c-4.851 13.668-10.391 27.062-16.574 40.083l47.64 47.64c30.656 30.656 30.656 80.537 0 111.192l-90.402 90.402c-14.849 14.85-34.594 23.029-55.595 23.029-21.002 0-40.746-8.178-55.597-23.031l-47.637-47.639c-13.022 6.184-26.413 11.72-40.086 16.573v67.405c.002 43.354-35.268 78.626-78.622 78.626zm-252.153-226.498c4.666 0 9.366 1.134 13.676 3.462 21.759 11.758 44.987 21.367 69.036 28.556 12.189 3.644 20.541 14.858 20.541 27.581v88.273c0 11.607 9.442 21.052 21.05 21.052h127.85c11.607 0 21.052-9.445 21.052-21.052v-88.273c0-12.723 8.35-23.937 20.539-27.581 24.049-7.189 47.277-16.798 69.036-28.556 11.198-6.052 25.041-4.028 34.042 4.971l62.39 62.392c7.953 7.953 21.816 7.953 29.769 0l90.404-90.402c8.208-8.208 8.208-21.561-.001-29.77l-62.39-62.39c-9.001-9-11.021-22.842-4.972-34.04 11.762-21.769 21.37-44.997 28.557-69.036 3.646-12.189 14.858-20.541 27.581-20.541h88.271c11.607 0 21.05-9.442 21.05-21.05v-127.85c0-11.607-9.443-21.049-21.05-21.049h-88.271c-12.723 0-23.935-8.352-27.581-20.541-7.188-24.044-16.796-47.274-28.557-69.042-6.049-11.197-4.028-25.038 4.972-34.039l62.39-62.388c8.208-8.206 8.208-21.561 0-29.769l-90.403-90.402c-8.206-8.206-21.563-8.206-29.769 0l-62.39 62.392c-8.999 9-22.842 11.023-34.042 4.97-21.749-11.753-44.977-21.362-69.041-28.561-12.186-3.646-20.534-14.858-20.534-27.579v-88.27c0-11.607-9.445-21.05-21.052-21.05h-127.85c-11.608 0-21.05 9.443-21.05 21.05v88.27c0 12.721-8.35 23.934-20.538 27.579-24.06 7.199-47.29 16.808-69.039 28.561-11.198 6.052-25.043 4.03-34.042-4.97l-62.39-62.392c-8.206-8.206-21.563-8.206-29.769 0l-90.402 90.402c-8.208 8.208-8.208 21.563 0 29.769l62.39 62.388c9.001 9.001 11.021 22.842 4.972 34.039-11.761 21.769-21.37 44.999-28.557 69.042-3.646 12.189-14.858 20.541-27.581 20.541h-88.271c-11.607 0-21.052 9.442-21.052 21.049v127.85c0 11.608 9.445 21.05 21.052 21.05h88.271c12.723 0 23.935 8.352 27.581 20.541 7.188 24.039 16.795 47.267 28.557 69.036 6.049 11.198 4.028 25.04-4.971 34.04l-62.393 62.39c-8.206 8.208-8.206 21.563.002 29.77l90.402 90.402c7.953 7.953 21.816 7.953 29.769 0l62.39-62.392c5.536-5.537 12.907-8.433 20.366-8.433z" fill="#1a2157"/></g><g><path d="m2260.163 3404.815c-118.77 0-215.397-96.626-215.397-215.396s96.627-215.395 215.397-215.395 215.395 96.625 215.395 215.395-96.625 215.396-215.395 215.396zm0-373.219c-87.024 0-157.823 70.8-157.823 157.823 0 87.024 70.799 157.823 157.823 157.823 87.023 0 157.823-70.799 157.823-157.823 0-87.023-70.8-157.823-157.823-157.823z" fill="#1a2157"/></g></g><g><g><g><path d="m2355.638 2386.333c-55.446 0-100.554-45.109-100.554-100.556 0-55.446 45.109-100.555 100.554-100.555s100.554 45.109 100.554 100.555c0 55.448-45.108 100.556-100.554 100.556zm0-143.538c-23.7 0-42.983 19.282-42.983 42.983 0 23.702 19.282 42.984 42.983 42.984s42.983-19.282 42.983-42.984c0-23.701-19.283-42.983-42.983-42.983z" fill="#1a2157"/></g><g><path d="m2353.825 2133.517c-.13 0-.26-.002-.389-.002-46.32-.18-82.062-32.48-86.914-78.546l-49.601-470.886c-.105-1.001-.157-2.008-.157-3.015 0-76.575 62.298-138.876 138.875-138.876s138.875 62.301 138.875 138.876c0 1.082-.06 2.163-.182 3.239l-53.37 471.34c-5.199 45.899-41.004 77.87-87.137 77.87zm-79.477-553.848 49.431 469.269c2.697 25.603 25.366 26.988 29.882 27.004 4.247-.065 27.193-1.187 30.091-26.772l53.174-469.605c-.806-44.137-36.961-79.799-81.288-79.799-44.363 0-80.541 35.717-81.29 79.903zm138.009 472.74h.067z" fill="#1a2157"/></g></g><g><path d="m2919.21 2531.556h-1170.266c-88.954 0-167.061-46.854-208.937-125.333-41.875-78.481-37.307-169.449 12.22-243.339l606.695-905.133c44.054-65.724 117.594-104.964 196.716-104.964 79.123 0 152.663 39.24 196.717 104.964l149.483 223.016c8.851 13.206 5.321 31.087-7.885 39.94-13.204 8.847-31.086 5.324-39.94-7.885l-149.483-223.016c-33.841-50.488-88.111-79.446-148.892-79.446-60.78 0-115.05 28.958-148.891 79.446l-606.695 905.133c-37.487 55.927-40.944 124.78-9.25 184.18 31.695 59.401 90.814 94.864 158.142 94.864h1170.266c15.898 0 28.786 12.889 28.786 28.787s-12.889 28.786-28.786 28.786z" fill="#1a2157"/></g></g><g><g><path d="m3345.519 4232.797h-833.301c-91.338 0-165.645-74.31-165.645-165.646 0-77.198-62.805-140.002-140.003-140.002h-275.991c-324.013 0-587.614-263.603-587.614-587.614v-399.588c-111.268-19.26-185.921-60.535-222.086-122.863-42.535-73.308-13.848-146.675-12.606-149.763.613-1.523 1.354-2.99 2.219-4.387l232.473-376.241v-530.122c0-15.898 12.888-28.788 28.786-28.788s28.786 12.89 28.786 28.788v538.298c0 5.345-1.487 10.583-4.298 15.131l-235.219 380.685c-3.247 9.688-15.838 54.25 10.056 98.188 29.255 49.64 100.005 83.489 204.601 97.89 14.247 1.962 24.86 14.136 24.86 28.518v424.253c0 292.265 237.777 530.039 530.042 530.039h275.991c108.944 0 197.575 88.633 197.575 197.577 0 59.591 48.482 108.071 108.073 108.071h833.301c59.591 0 108.073-48.48 108.073-108.071v-365.751c0-183.584 44.291-366.96 128.087-530.305l90.078-175.589c150.991-294.325 203.109-622.538 150.718-949.157l-45.746-285.217c-2.519-15.697 8.166-30.464 23.864-32.983 15.697-2.507 30.465 8.167 32.983 23.866l45.746 285.217c54.343 338.798.282 679.252-156.338 984.553l-90.08 175.589c-79.644 155.251-121.739 329.54-121.739 504.026v365.751c0 91.337-74.31 165.647-165.646 165.647z" fill="#1a2157"/></g><g><path d="m2744.535 3927.148h-537.966c-15.898 0-28.786-12.888-28.786-28.786s12.888-28.786 28.786-28.786h537.966c15.898 0 28.786 12.888 28.786 28.786s-12.888 28.786-28.786 28.786z" fill="#1a2157"/></g></g><g id="wrench_1_"><path d="m3138.742 3116.429c-136.929 0-248.328-111.401-248.328-248.329v-775.913c-163.376-90.518-264.13-260.651-264.13-448.214 0-111.847 35.396-218.118 102.365-307.328 64.743-86.244 156.892-151.09 259.474-182.59 8.73-2.682 18.214-1.061 25.56 4.367 7.343 5.428 11.677 14.018 11.677 23.151v387.904c0 30.93 12.228 59.829 34.43 81.376 22.188 21.533 51.482 32.837 82.459 31.953 60.585-1.818 109.876-55.331 109.876-119.29v-381.943c0-9.133 4.333-17.723 11.677-23.151 7.347-5.426 16.831-7.047 25.56-4.367 102.58 31.5 194.731 96.345 259.472 182.59 66.97 89.21 102.366 195.482 102.366 307.328 0 187.563-100.754 357.696-264.13 448.214v775.913c-.001 136.928-111.4 248.329-248.328 248.329zm-170.955-1894.153c-171.352 69.02-283.93 233.865-283.93 421.697 0 171.76 95.193 327.057 248.432 405.286 9.633 4.918 15.697 14.823 15.697 25.64v793.2c0 105.183 85.573 190.756 190.756 190.756s190.756-85.573 190.756-190.756v-793.2c0-10.817 6.064-20.721 15.697-25.64 153.239-78.23 248.432-233.526 248.432-405.286 0-187.832-112.58-352.677-283.93-421.697v341.241c0 94.768-74.342 174.097-165.722 176.838-46.713 1.367-90.823-15.713-124.281-48.185-33.473-32.483-51.905-76.055-51.905-122.691v-347.203z" fill="#1a2157"/></g></g></g></g></svg>