<svg id="Layer_1" enable-background="new 0 0 66 66" height="70" viewBox="0 0 66 66" width="70" xmlns="http://www.w3.org/2000/svg"><g><path d="m43.08 2h-36.08c-2.76 0-5 2.24-5 5v52c0 2.76 2.24 5 5 5h36.08c2.76 0 5-2.24 5-5v-52c0-2.76-2.23-5-5-5z" fill="#f09d00"/><path d="m42.08 7h-34.08c-.55 0-1 .45-1 1v50c0 .55.45 1 1 1h34.08c.55 0 1-.45 1-1v-50c0-.55-.44-1-1-1z" fill="#e6e9ee"/><path d="m49.02 43.23 2.55 2.54 2.65-2.66-2.54-2.54" fill="#d33d24"/><path d="m16.08 2v6.84c0 .74.6 1.35 1.35 1.35h15.23c.74 0 1.35-.6 1.35-1.35v-6.84z" fill="#5d5b68"/><path d="m31.59 2c0 3.19-2.59 5.78-5.78 5.78h-9.73v1.06c0 .74.6 1.35 1.35 1.35h15.23c.74 0 1.35-.6 1.35-1.35v-6.84z" fill="#504f5b"/><g><path d="m39.08 17.68h-15.48c-.55 0-1-.45-1-1s.45-1 1-1h15.48c.55 0 1 .45 1 1s-.45 1-1 1z" fill="#848792"/></g><g><path d="m35.25 22.13h-11.65c-.55 0-1-.45-1-1s.45-1 1-1h11.65c.55 0 1 .45 1 1s-.45 1-1 1z" fill="#848792"/></g><g><path d="m39.08 33.59h-15.48c-.55 0-1-.45-1-1s.45-1 1-1h15.48c.55 0 1 .45 1 1s-.45 1-1 1z" fill="#848792"/></g><g><path d="m35.25 38.05h-11.65c-.55 0-1-.45-1-1s.45-1 1-1h11.65c.55 0 1 .45 1 1s-.45 1-1 1z" fill="#848792"/></g><path d="m18.91 14.23h-6.91c-.55 0-1 .45-1 1v6.91c0 .55.45 1 1 1h6.91c.55 0 1-.45 1-1v-6.91c0-.56-.45-1-1-1z" fill="#6e7fed"/><path d="m18.91 30.14h-6.91c-.55 0-1 .45-1 1v6.91c0 .55.45 1 1 1h6.91c.55 0 1-.45 1-1v-6.91c0-.55-.45-1-1-1z" fill="#ee6a51"/><path d="m18.91 46.05h-6.91c-.55 0-1 .45-1 1v6.91c0 .55.45 1 1 1h6.91c.55 0 1-.45 1-1v-6.91c0-.55-.45-1-1-1z" fill="#4ec4a5"/><g><path d="m39.08 49.5h-15.48c-.55 0-1-.45-1-1s.45-1 1-1h15.48c.55 0 1 .45 1 1s-.45 1-1 1z" fill="#848792"/></g><g><path d="m35.25 53.96h-11.65c-.55 0-1-.45-1-1s.45-1 1-1h11.65c.55 0 1 .45 1 1s-.45 1-1 1z" fill="#848792"/></g><circle cx="41.49" cy="33.04" fill="#6e7fed" r="12.68"/><path d="m50.46 24.07c-.64-.64-1.33-1.19-2.06-1.67 3.2 4.92 2.65 11.56-1.67 15.88-4.31 4.31-10.96 4.87-15.88 1.67.47.73 1.03 1.42 1.67 2.06 4.95 4.95 12.98 4.95 17.94 0s4.96-12.99 0-17.94z" fill="#5f6fe7"/><g><path d="m32.81 34.04c-.55 0-1-.45-1-1 0-2.58 1.01-5.02 2.84-6.85s4.26-2.84 6.85-2.84c.55 0 1 .45 1 1s-.45 1-1 1c-2.05 0-3.98.8-5.43 2.25s-2.25 3.38-2.25 5.43c-.01.56-.46 1.01-1.01 1.01z" fill="#8c9ffa"/></g><path d="m49.81 46.06 8.51 8.51c1.3 1.3 3.41 1.3 4.7 0 1.3-1.3 1.3-3.41 0-4.7l-8.51-8.51z" fill="#e1533b"/><path d="m63.66 50.78c-.15.54-.42 1.04-.84 1.47-1.3 1.3-3.41 1.3-4.7 0l-7.25-7.25-1.06 1.06 8.51 8.51c1.3 1.3 3.41 1.3 4.7 0 1.03-1.03 1.23-2.55.64-3.79z" fill="#d33d24"/><path d="m18.91 14.23h-.99c0 3.82-3.1 6.92-6.92 6.92v.99c0 .55.45 1 1 1h6.91c.55 0 1-.45 1-1v-6.91c0-.56-.45-1-1-1z" fill="#5f6fe7"/><path d="m18.91 30.14h-.99c0 3.82-3.1 6.92-6.92 6.92v.99c0 .55.45 1 1 1h6.91c.55 0 1-.45 1-1v-6.91c0-.55-.45-1-1-1z" fill="#e1533b"/><path d="m18.91 46.05h-.99c0 3.82-3.1 6.92-6.92 6.92v.99c0 .55.45 1 1 1h6.91c.55 0 1-.45 1-1v-6.91c0-.55-.45-1-1-1z" fill="#30aa87"/><g><path d="m14.47 21.16c-.26 0-.51-.1-.71-.29l-.99-.98c-.39-.39-.39-1.02 0-1.41s1.02-.39 1.41 0l.28.28 2.25-2.25c.39-.39 1.02-.39 1.41 0s.39 1.02 0 1.41l-2.95 2.95c-.18.19-.44.29-.7.29z" fill="#fff"/></g><g><path d="m14.47 37.07c-.26 0-.51-.1-.71-.29l-.99-.98c-.39-.39-.39-1.02 0-1.41s1.02-.39 1.41 0l.28.28 2.25-2.25c.39-.39 1.02-.39 1.41 0s.39 1.02 0 1.41l-2.95 2.95c-.18.19-.44.29-.7.29z" fill="#fff"/></g><path d="m16.87 50.51.77-.77c.39-.39.39-1.02 0-1.41s-1.02-.39-1.41 0l-.77.77-.77-.77c-.39-.39-1.02-.39-1.41 0s-.39 1.02 0 1.41l.77.77-.77.77c-.39.39-.39 1.02 0 1.41.2.2.45.29.71.29s.51-.1.71-.29l.77-.77.77.77c.2.2.45.29.71.29s.51-.1.71-.29c.39-.39.39-1.02 0-1.41z" fill="#fff"/></g></svg>