<svg height="150" viewBox="0 0 59 59" width="150" xmlns="http://www.w3.org/2000/svg"><g id="Page-1" fill="none" fill-rule="evenodd"><g id="006---Brain-Connection-Severed" fill-rule="nonzero"><path id="Shape" d="m22.03 14.03-.01 4v.04c-.01.31-.02.62-.02.93s.01.62.02.93l-.02 11.69v20.88c-.002145.4397778-.0456702.878378-.13 1.31-.0990893.4872722-.2569081.9607287-.47 1.41-.0632489.1514958-.1367527.2985034-.22.44-.0978811.1892782-.2116211.3699241-.34.54-.237318.3521362-.5122715.6773861-.82.97v.01c-1.5478076 1.4899857-3.7311589 2.1202225-5.8348976 1.6842767-2.1037388-.4359459-3.85685-1.8819136-4.6851024-3.8642767-3.03756612 0-5.5-2.4624339-5.5-5.5-.00369571-.8782027.20925932-1.7437618.62-2.52-2.60434181-.1985025-4.61710637-2.3681058-4.62-4.98-.00029627-.8440863.21666307-1.6740419.63-2.41.31208436-.5815273.74106929-1.0922236 1.26-1.5-.05-.05-.09-.1-.14-.15-1.20214704-1.28665-1.83084616-3.0059751-1.74225497-4.7646045s.88689154-3.4060692 2.21225497-4.5653955c-.14508914-.5243956-.21908404-1.0659037-.22-1.61.00278824-3.2183277 2.54424671-5.8612681 5.76-5.99-.34728898-.5190161-.58231001-1.1048657-.69-1.72-.04897066-.2604301-.07241506-.5250168-.07-.79-.00090625-1.8928442 1.18791442-3.5820103 2.97-4.22l.01-.01c.989508-.7345028 2.0176474-1.4154782 3.08-2.04 3.51-2.06 5.64-2.23 6.94-1.67 1.1734188.611044 1.9346912 1.7986291 2 3.12.02.22.03.35.03.35z" fill="#fb7b76"/><path id="Shape" d="m39.38 46.98c.4107407.7762382.6236957 1.6417973.62 2.52 0 3.0375661-2.4624339 5.5-5.5 5.5-1.1917026 2.8600861-4.2364976 4.4814258-7.2747549 3.8737744-3.0382573-.6076515-5.2252451-3.2753478-5.2252451-6.3737744v-20.88l.02-11.69c.1239868 2.5574817.7994148 5.0579296 1.98 7.33 3.0921091 5.9834197 9.2648349 9.7410665 16 9.74.22 0 .43 0 .65-.01 2.1246977.7156323 3.5004319 2.7730735 3.35 5.01-.0028936 2.6118942-2.0156582 4.7814975-4.62 4.98z" fill="#ff5364"/><path id="Shape" d="m24 20v37c-.0017076.0604477-.008397.1206517-.02.18-1.2652985-1.2283452-1.9795323-2.9165341-1.98-4.68v-32.5c0-.5522847.4477153-1 1-1s1 .4477153 1 1z" fill="#df4d60"/><circle id="Oval" cx="40" cy="19" fill="#2980ba" r="18"/><g fill="#df4d60"><path id="Shape" d="m17 17.5c0 .5522847-.4477153 1-1 1s-1-.4477153-1-1c0-1.9329966-1.5670034-3.5-3.5-3.5-.395416-.0020275-.788093.0656754-1.16.2-.1141018.0472048-.2365233.071009-.36.07.989508-.7345028 2.0176474-1.4154782 3.08-2.04 2.3336021.6929917 3.9355356 2.8356795 3.94 5.27z"/><path id="Shape" d="m15 26c0 .5522847-.4477153 1-1 1s-1-.4477153-1-1c0-1.3260824-.5267842-2.597852-1.4644661-3.5355339s-2.20945145-1.4644661-3.5355339-1.4644661h-.12c-.04 0-.08.01-.12.01-.34728898-.5190161-.58231001-1.1048657-.69-1.72.1539401-.1519546.35490568-.2471488.57-.27.11923921-.0166233.23965322-.0233129.36-.02 3.8641657.0044086 6.9955914 3.1358343 7 7z"/><path id="Shape" d="m6 40c0 .5522847-.44771525 1-1 1-1.56956402.0067968-3.10039613-.487133-4.37-1.41.31208436-.5815273.74106929-1.0922236 1.26-1.5-.05-.05-.09-.1-.14-.15.94155071.6928683 2.08099876 1.0645036 3.25 1.06.55228475 0 1 .4477153 1 1z"/><path id="Shape" d="m13.7 33.985c1.8857785-.0666647 3.6756862-.8477609 5.007-2.185.3789722-.3923789.3735524-1.0160848-.0121814-1.4018186s-1.0094397-.3911536-1.4018186-.0121814c-1.5722233 1.5753916-3.9389406 2.0479259-5.9955845 1.197067-2.0566438-.8508589-3.39775114-2.8573661-3.3974155-5.083067 0-.5522847-.44771525-1-1-1s-1 .4477153-1 1c.00589259 3.4632753 2.38024465 6.4730464 5.747 7.285-.4763452 1.2019535-1.5747288 2.0448544-2.859 2.194-.52833467.0581209-.91888597.5193982-.88907816 1.0500836.02980781.5306855.46955809.9453259 1.00107816.9439164.03708092-.0000044.07413466-.0020073.111-.006 2.2249486-.2558015 4.076146-1.8278782 4.689-3.982z"/><path id="Shape" d="m17.9 39c-3.8641657.0044086-6.9955914 3.1358343-7 7 0 .027 0 .054.005.081-.332593-.0513313-.6684792-.0784027-1.005-.081-.55228475 0-1 .4477153-1 1s.44771525 1 1 1c2.7600532.0033061 4.9966939 2.2399468 5 5 0 .5522847.4477153 1 1 1s1-.4477153 1-1c-.0037171-2.6770361-1.5339198-5.1175191-3.942-6.287-.0367719-.2359251-.0561574-.4742335-.058-.713.0033061-2.7600532 2.2399468-4.9966939 5-5 .5522847 0 1-.4477153 1-1s-.4477153-1-1-1z"/><path id="Shape" d="m32.831 49.41c-.0801558.0000138-.160036-.0093839-.238-.028-.257858-.0627426-.4802015-.2254093-.6180608-.4521739-.1378594-.2267646-.1799275-.499028-.1169392-.7568261.0945714-.3838232.1422527-.7776977.142-1.173-.0033061-2.7600532-2.2399468-4.9966939-5-5-.5522847 0-1-.4477153-1-1s.4477153-1 1-1c2.1464605-.000882 4.1744943.9837679 5.5013391 2.6710071 1.3268448 1.6872393 1.8055879 3.8902512 1.2986609 5.9759929-.1090325.4469521-.5089424.7618451-.969.763z"/><path id="Shape" d="m29 55c-.5522847 0-1-.4477153-1-1 .0044086-3.8641657 3.1358343-6.9955914 7-7 .5522847 0 1 .4477153 1 1s-.4477153 1-1 1c-2.7600532.0033061-4.9966939 2.2399468-5 5 0 .2652165-.1053568.5195704-.2928932.7071068s-.4418903.2928932-.7071068.2928932z"/><path id="Shape" d="m28.5 46c0 .5522847-.4477153 1-1 1-3.0352835.0055037-5.4944963 2.4647165-5.5 5.5v-5.08c1.4100752-1.5461231 3.4074456-2.4249661 5.5-2.42.2652165 0 .5195704.1053568.7071068.2928932s.2928932.4418903.2928932.7071068z"/></g><path id="Shape" d="m48 28.62v6.5c-5.0387899 2.5067098-10.9612101 2.5067098-16 0v-6.5c-.002433-.3483719.1766148-.672901.4726128-.8566239.2959979-.1837229.6662778-.2001558.9773872-.0433761l2.1 1.06c.2836743.1399671.6163257.1399671.9 0l.55-.28 2.99-1.5 3.01 1.5.55.28c.2836743.1399671.6163257.1399671.9 0l2.1-1.06c.3111094-.1567797.6813893-.1403468.9773872.0433761.295998.1837229.4750458.508252.4726128.8566239z" fill="#ff5364"/><path id="Shape" d="m48 2.88v6.5c.002433.3483719-.1766148.672901-.4726128.8566239-.2959979.1837229-.6662778.2001558-.9773872.0433761l-2.1-1.06c-.2836743-.13996711-.6163257-.13996711-.9 0l-.55.28-3.01 1.5-2.99-1.5-.55-.28c-.2836743-.13996711-.6163257-.13996711-.9 0l-2.1 1.06c-.3111094.1567797-.6813893.1403468-.9773872-.0433761-.295998-.1837229-.4750458-.508252-.4726128-.8566239v-6.5c5.0387899-2.50670978 10.9612101-2.50670978 16 0z" fill="#ff5364"/><path id="Shape" d="m43 23v5.5l-3.01-1.5-2.99 1.5v-5.5c0-.5522847.4477153-1 1-1h4c.5522847 0 1 .4477153 1 1z" fill="#f0c419"/><path id="Shape" d="m43 9.5v5.5c0 .5522847-.4477153 1-1 1h-4c-.5522847 0-1-.4477153-1-1v-5.5l2.99 1.5z" fill="#f0c419"/><path id="Shape" d="m31 24c-.1547895-.0000102-.3074634-.0359537-.446-.105l-4-2c-.3197527-.1596977-.5300187-.4778505-.5515928-.8346134-.021574-.3567628.1488214-.6979349.4470001-.895.2981786-.1970651.67884-.2200843.9985927-.0603866l4 2c.415621.2071424.6339515.6731489.5271118 1.1250715-.1068398.4519227-.5107327.7708283-.9751118.7699285z" fill="#f29c1f"/><path id="Shape" d="m49 24c-.4643791.0008998-.868272-.3180058-.9751118-.7699285-.1068397-.4519226.1114908-.9179291.5271118-1.1250715l4-2c.3197527-.1596977.7004141-.1366785.9985928.0603866.2981786.1970651.4685741.5382372.447.895-.0215741.3567629-.2318401.6749157-.5515928.8346134l-4 2c-.1385366.0690463-.2912105.1049898-.446.105z" fill="#f29c1f"/><path id="Shape" d="m33 20c-.2651948-.0000566-.5195073-.1054506-.707-.293l-2-2c-.3789722-.3923789-.3735524-1.0160848.0121814-1.4018186s1.0094397-.3911536 1.4018186-.0121814l2 2c.2859079.2859943.3714219.7160366.216678 1.0896546-.1547439.3736179-.5192821.6172591-.923678.6173454z" fill="#f29c1f"/><path id="Shape" d="m47 20c-.4043959-.0000863-.7689341-.2437275-.923678-.6173454-.1547439-.373618-.0692299-.8036603.216678-1.0896546l2-2c.3923789-.3789722 1.0160848-.3735524 1.4018186.0121814s.3911536 1.0094397.0121814 1.4018186l-2 2c-.1874927.1875494-.4418052.2929434-.707.293z" fill="#f29c1f"/><path id="Shape" d="m40 38c-10.4934102 0-19-8.5065898-19-19 0-10.49341025 8.5065898-19 19-19s19 8.50658975 19 19c-.0115735 10.4886126-8.5113874 18.9884265-19 19zm0-36c-9.3888407 0-17 7.61115925-17 17 0 9.3888407 7.6111593 17 17 17s17-7.6111593 17-17c-.010471-9.38450009-7.6154999-16.98952899-17-17z" fill="#67b9cc"/></g></g></svg>