<svg id="Capa_1" enable-background="new 0 0 512 512" height="512" viewBox="0 0 512 512" width="512" xmlns="http://www.w3.org/2000/svg"><g><path d="m0 105.992c0 3.9 1.5 7.8 4.501 10.499l145.499 145.8v203.701c0 6 3.6 11.4 9.3 13.799 4.4 2.202 11.796 1.597 16.199-3.3l60-60c3.001-2.699 4.501-6.599 4.501-10.499v-143.701l145.499-145.8c3.001-2.699 4.501-6.599 4.501-10.499l-195-30z" fill="#ffdf40"/><path d="m235.499 416.491c3.001-2.699 4.501-6.599 4.501-10.499v-143.701l145.499-145.8c3.001-2.699 4.501-6.599 4.501-10.499l-195-30v380.998z" fill="#ffbe40"/><g><path d="m392 480.992c-66.182 0-120-53.833-120-120s53.818-120 120-120 120 53.833 120 120-53.818 120-120 120z" fill="#ff5959"/></g><path d="m512 360.992c0-66.167-53.818-120-120-120v240c66.182 0 120-53.833 120-120z" fill="#e63a57"/><g id="_x30_7-clear_filter_2_"><path d="m413.211 360.992 19.395-19.395c5.859-5.859 5.859-15.352 0-21.211s-15.352-5.859-21.211 0l-19.395 19.395-19.395-19.395c-5.859-5.859-15.352-5.859-21.211 0s-5.859 15.352 0 21.211l19.395 19.395-19.395 19.395c-5.859 5.859-5.859 15.352 0 21.211s15.351 5.86 21.211 0l19.395-19.395 19.395 19.395c5.859 5.859 15.351 5.86 21.211 0 5.859-5.859 5.859-15.352 0-21.211z" fill="#f3f5f9"/><g><path d="m390 45.992v60h-390v-60c0-8.401 6.599-15 15-15h360c8.401 0 15 6.599 15 15z" fill="#ffbe40"/></g></g><path d="m411.395 401.597c5.859 5.859 15.352 5.859 21.211 0s5.859-15.352 0-21.211l-19.395-19.395 19.395-19.395c5.859-5.859 5.859-15.352 0-21.211s-15.352-5.859-21.211 0l-19.395 19.396v42.422z" fill="#e1e6f0"/><path d="m375 30.992h-180v75h195v-60c0-8.401-6.599-15-15-15z" fill="#ff9f40"/></g></svg>