<svg id="Layer_1" enable-background="new 0 0 512 512" viewBox="0 0 512 512" width="70" height="70" xmlns="http://www.w3.org/2000/svg"><g><g><g><path d="m507.1 398.2-3-6.2c-3.8-11.1-17.8-25.6-11.6-36.9 11.6-20.9 4.9-51.9-7.7-71.7-26.6-43.7-82.8-59.3-130.8-48.5v-177.7c0-16-13-29-29-29h-67v-9.1c0-10-8.2-18.1-18.2-18.1h-122.4c-10 0-18.2 8.1-18.2 18.1v9.1h-67c-16 0-29 13-29 29v424.7c0 16.1 13 29.1 29 29.1h292.9c14.6 0 26.6-10.9 28.6-24.9 22.6 7.1 41.8 13.1 57.4 18 3.7-7.7 6.4-15.9 16.9-15.7 22.3.8 61.6 10.1 54.4-26.8-.5-2.1.1-3.6 2.1-6.9 2.6-3.7 4.8-10.2 3.4-15.1 7.7-3.8 6.3-14 5.5-21 7.1 0 20-8.1 13.7-20.4zm-182 102h-292.9c-10.1 0-18.2-8.2-18.2-18.3v-424.7c0-10 8.2-18.2 18.2-18.2h77.8v-19.9c0-4 3.3-7.3 7.4-7.3h122.5c4.1 0 7.4 3.3 7.4 7.3v19.9h77.8c10.1 0 18.2 8.2 18.2 18.2v180.5c-8.8 2.6-17.3 6.2-25.4 10.7v-184h-278.5v410.3h277.9c5.5 1.6 20.3 6.4 26 8.2-.5 9.6-8.5 17.3-18.2 17.3zm-67.6-157.8c1.1 43.8 55.2 75.8 42.4 121.6-83.2 0-166.4-.1-249.7-.1 0-126.4-1.5-252.9 0-379.2.1-6.1-1.2-7.5 3.7-9.5 4.1-1.7 12.5 0 17.1 0h236.1c0 57.1 0 114.2.1 171.2.6 6.1-2.4 11-7.2 14.4-24.2 20.1-44.2 49.2-42.5 81.6zm240.3 62.7c-.8 1.4-1.9 2.3-5.8 2.8-13.7 2.2-8 13.8-9 21.9-1.8 1.3-3.8 2.2-5.2 5.5-1.1 2.8-.7 5.4-.5 7.1.6 2.6-.8 4.2-2.2 6.8-2.2 3.6-5.1 8.5-3.2 15.3 1.6 5.8.3 12.2-5.7 13.7-19.3 5.1-49.4-10.7-60.9 12.8-16.7-5.3-61.5-19.2-87.5-27.5-1.7-.5-4.9-1.5-6.5-2 12-64.3-74.7-91.4-29.5-165.1 40.8-65.4 151-75.3 193.9-7.2 10.6 16.8 16.8 43.7 7.3 60.6-4.4 7.9-4.2 16.5.7 25.8 4.7 9 9.1 18.3 13.7 27.4.8 1.5.6 1.9.4 2.1z"/></g></g><g><g><path d="m307.1 75.2h-236.1c-4.5 0-13-1.7-17.1 0-5 2-3.7 3.4-3.7 9.5-1.5 126.3 0 252.8 0 379.2 83.2 0 166.4.1 249.7.1 12.9-45.8-41.3-77.7-42.4-121.6-1.7-32.4 18.3-61.5 42.4-81.5 4.9-3.4 7.9-8.4 7.2-14.4 0-57.1 0-114.2 0-171.3zm-190.9 327.8c0 4.8-3.9 8.7-8.7 8.7h-32.4c-4.8 0-8.8-3.9-8.8-8.7v-32.4c0-4.8 3.9-8.8 8.8-8.8h32.4c4.8 0 8.7 3.9 8.7 8.8zm0-70.1c0 4.8-3.9 8.8-8.7 8.8h-32.4c-4.8 0-8.8-3.9-8.8-8.8v-32.4c0-4.8 3.9-8.7 8.8-8.7h32.4c4.8 0 8.7 3.9 8.7 8.7zm125.7 71.5h-101.5c-7.1-.1-7.1-10.7 0-10.8h101.5c7.1 0 7.1 10.8 0 10.8zm-106.9-29.8c0-3 2.4-5.4 5.4-5.4h44.1c3 0 5.4 2.4 5.4 5.4s-2.4 5.4-5.4 5.4h-44.1c-2.9 0-5.4-2.4-5.4-5.4zm106.9-40.3h-101.5c-7.1-.1-7.1-10.7 0-10.8h101.5c7 0 7.1 10.8 0 10.8zm-106.9-29.7c0-3 2.4-5.4 5.4-5.4h44.1c3 0 5.4 2.4 5.4 5.4s-2.4 5.4-5.4 5.4h-44.1c-2.9 0-5.4-2.5-5.4-5.4zm150.6-40.5h-213.9v-10.8h11v-71.3h36.7v71.2h14.9v-106.7h36.6v106.8h14.9v-145h36.6v145h14.9v-92.2h36.7v92.2h11.6z" fill="#fed2a4"/></g></g><g><g><path d="m317.9 248.4v-184h-278.5v410.3h277.9c5.5 1.6 20.3 6.4 26 8.2-.5 9.6-8.5 17.3-18.2 17.3h-292.9c-10.1 0-18.2-8.2-18.2-18.3v-424.7c0-10 8.2-18.2 18.2-18.2h77.8v-19.9c0-4 3.3-7.3 7.4-7.3h122.5c4.1 0 7.4 3.3 7.4 7.3v19.9h77.8c10.1 0 18.2 8.2 18.2 18.2v180.5c-8.8 2.6-17.3 6.2-25.4 10.7z" fill="#9473c5"/></g></g><g><g><path d="m497.5 403c-4.5-9.1-8.9-18.4-13.7-27.4-4.9-9.2-5.1-17.9-.7-25.8 9.5-17 3.3-43.9-7.3-60.6-42.9-68-153.1-58.2-193.9 7.2-45.2 73.9 41.5 100.8 29.5 165.1 1.6.5 4.8 1.5 6.5 2 26 8.2 70.8 22.2 87.5 27.5 11.5-23.4 41.6-7.7 60.9-12.8 6-1.5 7.2-7.9 5.7-13.7-1.9-6.8 1-11.7 3.2-15.3 1.4-2.6 2.8-4.2 2.2-6.8-.2-1.7-.6-4.3.5-7.1 1.5-3.3 3.5-4.2 5.2-5.5.6-2.3-.5-8.5-.5-11.4 0-4.3 1.6-9.6 9.5-10.6 3.9-.5 5.1-1.4 5.8-2.8.1-.1.3-.5-.4-2zm-130.5-42.2-54.7 2.5c-3 .1-5.5-2.2-5.7-5.2 0 0-.7-15.7-.7-15.7-.1-1.5.5-2.8 1.5-3.9 2-2.5 6.1-1.1 8.1-3.8 2.4-2.5 2.1-6.6-.4-8.9-2.4-2.5-6.1-.6-8.4-3.1-1.1-.9-1.7-2.3-1.8-3.7l-.7-15.7c-.1-3 2.2-5.5 5.2-5.6l11.1-.5c4.2-15.5 26.8-16.5 32.4-1.5l11.2-.5c2.9-.2 5.5 2.2 5.6 5.2l.7 15.7c.2 3-2.2 5.5-5.1 5.6-5.5.1-8.1 7.3-4 10.9 1.2 1.1 2.9 1.7 4.5 1.6 2.9-.2 5.6 2.2 5.6 5.2 0 0 .7 15.7.7 15.7.2 3.1-2.1 5.6-5.1 5.7zm103.2-30-11.5 10.8c-2.2 2.1-5.6 1.9-7.6-.3-2.4-2.5-6.4-2.7-8.9-.3s-2.7 6.4-.3 8.9c2 2 1.9 5.7-.2 7.6 0 0-11.5 10.8-11.5 10.8-2.2 2-5.6 1.9-7.7-.3 0 0-7.6-8.1-7.6-8.1-14.5 7-30.1-9.9-22.2-23.7l-7.6-8.2c-2.1-2.2-1.9-5.6.2-7.6l11.5-10.8c2.2-2.1 5.6-1.9 7.6.3 2.4 2.5 6.4 2.6 8.9.3 2.6-2.2 2.6-6.5.3-8.9-2-2.1-1.9-5.7.3-7.7 0 0 11.5-10.7 11.5-10.7 2.2-2.1 5.6-1.9 7.6.2l37.5 40c1.9 2.3 1.8 5.7-.3 7.7z" fill="#feddcc"/></g></g><g><g><path d="m274 253.3v-92.2h-36.7v92.2h-14.9v-145h-36.6v145h-14.9v-106.8h-36.6v106.8h-14.9v-71.3h-36.7v71.2h-11v10.8h213.8v-10.8h-11.5zm-165.4-2.6h-15.1v-57.9h15.1zm51.5 0h-15v-93.5h15zm51.5 0h-15v-131.6h15zm51.6 0h-15.1v-78.9h15.1z"/></g></g><g><g><path d="m93.5 192.8h15.1v57.9h-15.1z" fill="#ee8dc5"/></g></g><g><g><path d="m145.1 157.3h15v93.5h-15z" fill="#ee8dc5"/></g></g><g><g><path d="m248.1 171.9h15.1v78.9h-15.1z" fill="#ee8dc5"/></g></g><g><g><path d="m196.6 119.1h15v131.6h-15z" fill="#ee8dc5"/></g></g><g><g><path d="m107.5 291.8h-32.4c-4.8 0-8.8 3.9-8.8 8.7v32.4c0 4.8 3.9 8.8 8.8 8.8h32.4c4.8 0 8.7-3.9 8.7-8.8v-32.4c0-4.7-3.9-8.7-8.7-8.7zm-2.1 39h-28.3v-28.2h28.2v28.2z"/></g></g><g><g><path d="m77.1 302.6h28.2v28.2h-28.2z" fill="#ee8dc5"/></g></g><g><g><path d="m189.9 304.6c0 3-2.4 5.4-5.4 5.4h-44.1c-3 0-5.4-2.4-5.4-5.4s2.4-5.4 5.4-5.4h44.1c3 0 5.4 2.3 5.4 5.4z"/></g></g><g><g><path d="m247.3 328.9c0 3-2.4 5.4-5.4 5.4h-101.5c-3 0-5.4-2.4-5.4-5.4s2.4-5.4 5.4-5.4h101.5c3 0 5.4 2.4 5.4 5.4z"/></g></g><g><g><path d="m107.5 361.9h-32.4c-4.8 0-8.8 3.9-8.8 8.8v32.3c0 4.8 3.9 8.7 8.8 8.7h32.4c4.8 0 8.7-3.9 8.7-8.7v-32.4c0-4.8-3.9-8.7-8.7-8.7zm-2.1 39h-28.3v-28.2h28.2v28.2z"/></g></g><g><g><path d="m77.1 372.7h28.2v28.2h-28.2z" fill="#ee8dc5"/></g></g><g><g><path d="m189.9 374.6c0 3-2.4 5.4-5.4 5.4h-44.1c-3 0-5.4-2.4-5.4-5.4s2.4-5.4 5.4-5.4h44.1c3 0 5.4 2.4 5.4 5.4z"/></g></g><g><g><path d="m247.3 398.9c0 3-2.4 5.4-5.4 5.4h-101.5c-3 0-5.4-2.4-5.4-5.4s2.4-5.4 5.4-5.4h101.5c3 0 5.4 2.5 5.4 5.4z"/></g></g><g><g><path d="m371.4 339.5c0-2.9-2.7-5.4-5.6-5.2-3.3.3-6.5-2.6-6.6-5.9-.1-3.5 2.5-6.4 6.1-6.6 3-.1 5.3-2.6 5.1-5.6l-.7-15.7c-.1-3-2.8-5.4-5.6-5.2 0 0-11.2.5-11.2.5-5.6-15.1-28.2-14.1-32.4 1.5 0 0-11.1.5-11.1.5-3 .1-5.3 2.6-5.2 5.6l.7 15.7c.1 2.9 2.8 5.4 5.6 5.2 1.6-.1 3.3.5 4.5 1.6 2.5 2.2 2.8 6.4.4 8.9-1.1 1.2-2.7 1.9-4.4 2.1-3 0-5.3 2.7-5.2 5.6 0 0 .7 15.7.7 15.7.1 2.8 2.5 5.2 5.4 5.2.2.1 54.7-2.5 55-2.5 3-.1 5.3-2.6 5.1-5.6zm-54.2 12.7-.3-5.7c15.3-5.7 14.1-28.2-1.5-32.4l-.3-5.7 10.3-.5c3-.1 5.2-2.6 5.1-5.6-.2-8.3 12.1-8.8 12.5-.5.2 3 2.6 5.4 5.7 5.1l10.3-.5.3 5.8c-15.1 5.6-14.3 28.1 1.4 32.4l.3 5.7z"/></g></g><g><g><path d="m361.1 350.3-43.9 1.9-.3-5.7c15.3-5.7 14.1-28.2-1.5-32.4l-.3-5.7 10.3-.5c3-.1 5.2-2.6 5.1-5.6-.2-8.3 12.1-8.8 12.5-.5.2 3 2.6 5.4 5.7 5.1l10.3-.5.3 5.8c-15.1 5.6-14.3 28.1 1.4 32.4z" fill="#ee8dc5"/></g></g><g><g><path d="m470.4 323.2-37.5-40c-2.1-2.2-5.5-2.3-7.6-.2l-11.5 10.7c-2.2 2-2.3 5.6-.3 7.7 2.4 2.4 2.3 6.6-.3 8.9-2.5 2.4-6.5 2.2-8.9-.3-2-2.2-5.5-2.3-7.6-.3l-11.5 10.8c-2.2 2-2.3 5.5-.2 7.6l7.6 8.2c-7.9 13.8 7.7 30.7 22.2 23.7l7.6 8.1c2.1 2.2 5.4 2.3 7.7.3 0 0 11.5-10.8 11.5-10.8 2.1-1.9 2.2-5.6.2-7.6-5.6-6 3.5-14.6 9.2-8.6 2.1 2.2 5.5 2.3 7.6.3l11.5-10.8c2.2-2.1 2.3-5.5.3-7.7zm-15.7 7.4c-13.9-8.1-30.8 7.7-23.7 22.2l-4.2 3.9c-2.8-2.5-7.5-9.7-11-9.2-1.4 0-2.6.5-3.7 1.5-6 5.6-14.5-3.6-8.5-9.2 2.2-2 2.3-5.5.2-7.6l-7-7.5 4.2-3.9c13.8 8 30.7-7.7 23.7-22.2l4.2-3.9 30.1 32.1z"/></g></g><g><g><path d="m458.8 326.7-4.2 3.9c-13.9-8.1-30.8 7.7-23.7 22.2l-4.2 3.9c-2.8-2.5-7.5-9.7-11-9.2-1.4 0-2.6.5-3.7 1.5-6 5.6-14.5-3.6-8.5-9.2 2.2-2 2.3-5.5.2-7.6l-7-7.5 4.2-3.9c13.8 8 30.7-7.7 23.7-22.2l4.2-3.9z" fill="#9473c5"/></g></g></g></svg>