<svg enable-background="new 0 0 59 59" height="150" viewBox="0 0 64 64" width="150" xmlns="http://www.w3.org/2000/svg"><g id="Grids" display="none"><g id="Grid_55_" display="inline"><g><path d="m51.9 4.1v55.8h-39.8v-55.8zm.1-.1h-40v56h40z" fill="#f00"/></g><g><path d="m59.9 12.1v39.8h-55.8v-39.8zm.1-.1h-56v40h56z" fill="#4600f0"/></g><g><path d="m55.9 8.1v47.8h-47.8v-47.8zm.1-.1h-48v48h48z" fill="#f0c800"/></g><g><path d="m32 6.1c14.281 0 25.9 11.619 25.9 25.9s-11.619 25.9-25.9 25.9-25.9-11.619-25.9-25.9 11.619-25.9 25.9-25.9m0-.1c-14.359 0-26 11.641-26 26s11.641 26 26 26 26-11.641 26-26-11.641-26-26-26z" fill="#00f096"/></g></g></g><g id="Icons"><g><g><path d="m37 4h-10c-.552 0-1 .448-1 1v8c0 .552.448 1 1 1h4v1c0 .552.448 1 1 1s1-.448 1-1v-1h4c.552 0 1-.448 1-1v-8c0-.552-.448-1-1-1z" fill="#00a0c8"/></g><g><g><path d="m43 38v18h-22v-18c0-3.347 2.725-6 6-6h10c3.276 0 6 2.654 6 6z" fill="#f0f0f0"/></g><g><path d="m37.25 32.01c-1.02 1.85-2.99 3.1-5.25 3.1s-4.23-1.25-5.25-3.1c.08-.01.16-.01.25-.01h10c.09 0 .17 0 .25.01z" fill="#d2d2d2"/></g><g><path d="m38 24.107v-4.107h-12v4.107c-1.105 0-2 .895-2 2s.895 2 2 2c0 3.314 2.686 6 6 6s6-2.686 6-6c1.105 0 2-.895 2-2s-.895-2-2-2z" fill="#f0c8a0"/></g><g><g><circle cx="29.5" cy="25.5" fill="#00325a" r=".5"/></g><g><circle cx="34.5" cy="25.5" fill="#00325a" r=".5"/></g></g><g><path d="m32 25.5c-.276 0-.5.224-.5.5v1c0 .276.224.5.5.5s.5-.224.5-.5v-1c0-.276-.224-.5-.5-.5z" fill="#00325a"/></g><g><path d="m32 31.5c-1.379 0-2.5-1.121-2.5-2.5 0-.276.224-.5.5-.5s.5.224.5.5c0 .827.673 1.5 1.5 1.5s1.5-.673 1.5-1.5c0-.276.224-.5.5-.5s.5.224.5.5c0 1.379-1.121 2.5-2.5 2.5z" fill="#00325a"/></g><g><g><path d="m21 40h2v16h-2z" fill="#f0c8a0"/></g><g><path d="m41 40h2v16h-2z" fill="#f0c8a0"/></g></g><g><path d="m36 18h-4c-1.1 0-2 .9-2 2 0-1.205-1.072-2.173-2.326-1.972-.988.158-1.674 1.085-1.674 2.086v7.886c.552 0 1-.448 1-1v-4c0-.552.448-1 1-1h8c.552 0 1 .448 1 1v4c0 .552.448 1 1 1v-8c0-1.1-.9-2-2-2z" fill="#00325a"/></g></g><g><path d="m18 26c-4.373 0-7.846 0-12 0-1.105 0-2 .895-2 2 0 1.104.895 2 2 2v.11c0 3.31 2.69 6 6 6s6-2.69 6-6v-.11c1.105 0 2-.896 2-2 0-1.105-.895-2-2-2z" fill="#f0c8a0"/></g><g><path d="m55 8h-10c-.552 0-1 .448-1 1v8c0 .55.45 1 1 1h9v1c0 .552.448 1 1 1s1-.448 1-1v-10c0-.55-.45-1-1-1z" fill="#c80a50"/></g><g><path d="m4 42h56v18h-56z" fill="#00a0c8"/></g><g><g><g><path d="m38.789 51.581-6.161 6.159c-.347.347-.91.347-1.257 0l-6.16-6.16c-1.614-1.614-1.614-4.23-.001-5.845l.003-.003c1.614-1.615 4.232-1.616 5.847-.001l.625.625c.174.174.455.174.629 0l.626-.626c1.614-1.614 4.232-1.614 5.846 0l.004.004c1.614 1.615 1.614 4.233-.001 5.847z" fill="#c80a50"/></g></g><g><path d="m34 51.26h-1v-1c0-.552-.448-1-1-1s-1 .448-1 1v1h-1c-.552 0-1 .448-1 1s.448 1 1 1h1v1c0 .552.448 1 1 1s1-.448 1-1v-1h1c.552 0 1-.448 1-1s-.448-1-1-1z" fill="#a00028"/></g><g><path d="m34 50.26h-1v-1c0-.552-.448-1-1-1s-1 .448-1 1v1h-1c-.552 0-1 .448-1 1s.448 1 1 1h1v1c0 .552.448 1 1 1s1-.448 1-1v-1h1c.552 0 1-.448 1-1s-.448-1-1-1z" fill="#f0f0f0"/></g></g><g><path d="m4 38h56v4h-56z" fill="#00325a"/></g><g><g><path d="m46 11c0 .55.45 1 1 1h6c.55 0 1-.45 1-1s-.45-1-1-1h-6c-.55 0-1 .45-1 1z" fill="#f0f0f0"/></g><g><g><path d="m46 15c0 .55.45 1 1 1h6c.552 0 1-.448 1-1 0-.552-.448-1-1-1h-6c-.55 0-1 .45-1 1z" fill="#f0f0f0"/></g></g></g><g><path d="m9 8h10c.552 0 1 .448 1 1v8c0 .55-.45 1-1 1h-9v1c0 .552-.448 1-1 1s-1-.448-1-1v-10c0-.55.45-1 1-1z" fill="#c80a50"/></g><g><g><path d="m18 11c0 .55-.45 1-1 1h-6c-.55 0-1-.45-1-1s.45-1 1-1h6c.55 0 1 .45 1 1z" fill="#f0f0f0"/></g><g><g><path d="m18 15c0 .55-.45 1-1 1h-6c-.552 0-1-.448-1-1 0-.552.448-1 1-1h6c.55 0 1 .45 1 1z" fill="#f0f0f0"/></g></g></g><g><g><path d="m28 7c0 .55.45 1 1 1h6c.55 0 1-.45 1-1s-.45-1-1-1h-6c-.55 0-1 .45-1 1z" fill="#f0f0f0"/></g><g><g><path d="m28 11c0 .55.45 1 1 1h6c.552 0 1-.448 1-1 0-.552-.448-1-1-1h-6c-.55 0-1 .45-1 1z" fill="#f0f0f0"/></g></g></g><g><g><path d="m6 54h12v6h-12z" fill="#0a5078"/></g><g><path d="m10 54h4v6h-4z" fill="#f0f0f0"/></g><g><path d="m16 22h-4c-1.1 0-2 .9-2 2 0-1.205-1.072-2.173-2.326-1.972-.988.158-1.674 1.085-1.674 2.086v3.886c0 3.314 2.686 6 6 6s6-2.686 6-6v-4c0-1.1-.9-2-2-2z" fill="#00325a"/></g><g><path d="m20 40v2h-2v11h-12v-11h-2v-2c0-3.314 2.686-6 6-6h4c3.314 0 6 2.686 6 6z" fill="#c80a50"/></g><g><path d="m6 50c-1.105 0-2-.895-2-2v-6h2z" fill="#f0c8a0"/></g><g><path d="m18 50v-8h2v6c0 1.105-.895 2-2 2z" fill="#f0c8a0"/></g><g><path d="m18 51v4h-12v-4z" fill="#0a5078"/></g><g><path d="m10 54h4v3h-4z" fill="#d2d2d2"/></g><g><path d="m20 54c0 1.097-.895 2-2 2h-12c-1.1 0-2-.9-2-2 0-1.095.893-2 2-2h12c1.1 0 2 .9 2 2z" fill="#f0f0f0"/></g><g><path d="m18 52v1c0 1.1-.9 2-2 2h-8c-1.1 0-2-.9-2-2v-1z" fill="#d2d2d2"/></g><g><path d="m18 50v2c0 1.105-.895 2-2 2h-8c-1.105 0-2-.895-2-2v-2z" fill="#0a5078"/></g></g><g><g><path d="m46 50c-1.105 0-2-.895-2-2v-6h2z" fill="#f0c8a0"/></g><g><path d="m58 50v-8h2v6c0 1.105-.895 2-2 2z" fill="#f0c8a0"/></g><g><path d="m46 54h12v6h-12z" fill="#0a5078"/></g><g><path d="m50 54h4v6h-4z" fill="#f0f0f0"/></g><g><path d="m60 40v2h-2v11h-12v-11h-2v-2c0-3.325 2.715-6 6-6h4c3.283 0 6 2.673 6 6z" fill="#c80a50"/></g><g><path d="m58 35.54v2.46c0 .55-.45 1-1 1h-10c-.55 0-1-.45-1-1v-2.46c1.06-.96 2.46-1.54 4-1.54h4c1.54 0 2.94.58 4 1.54z" fill="#a00028"/></g><g><path d="m58 51v4h-12v-4z" fill="#0a5078"/></g><g><path d="m50 54h4v3h-4z" fill="#d2d2d2"/></g><g><path d="m60 54c0 1.097-.895 2-2 2h-12c-1.1 0-2-.9-2-2 0-1.095.893-2 2-2h12c1.1 0 2 .9 2 2z" fill="#f0f0f0"/></g><g><path d="m58 52v1c0 1.1-.9 2-2 2h-8c-1.1 0-2-.9-2-2v-1z" fill="#d2d2d2"/></g><g><path d="m58 50v2c0 1.105-.895 2-2 2h-8c-1.105 0-2-.895-2-2v-2z" fill="#0a5078"/></g><g><path d="m57 38h-10c-.552 0-1-.448-1-1v-11c0-2.209 1.791-4 4-4h4c2.209 0 4 1.791 4 4v11c0 .552-.448 1-1 1z" fill="#00325a"/></g></g><g><path d="m36 7c0 .55-.45 1-1 1h-6c-.55 0-1-.45-1-1s.45-1 1-1h6c.55 0 1 .45 1 1z" fill="#f0f0f0"/></g><g><g><path d="m36 11c0 .55-.45 1-1 1h-6c-.552 0-1-.448-1-1 0-.552.448-1 1-1h6c.55 0 1 .45 1 1z" fill="#f0f0f0"/></g></g></g></g></svg>