<svg enable-background="new 0 0 256 256" height="70" viewBox="0 0 256 256" width="70" xmlns="http://www.w3.org/2000/svg"><g id="Layer_67"><g><g><g><path d="m129 2.5c-27.564 0-49.91 18.185-49.91 40.617 0 17.587 13.737 32.562 32.954 38.21 2.571.756 4.005 3.479 3.239 6.048-1.2 4.025-3.217 8.463-6.544 12.874-1.163 1.542.409 3.677 2.234 3.045 6.486-2.245 16.372-7.221 22.136-17.558.751-1.347 2.072-2.295 3.603-2.488 23.902-3.017 42.198-19.835 42.198-40.132 0-22.431-22.346-40.616-49.91-40.616z" fill="#f5c84c"/></g></g><g><g><ellipse cx="99.46" cy="44" fill="#edf4fc" rx="4.796" ry="4.796" transform="matrix(.987 -.16 .16 .987 -5.764 16.5)"/></g></g><g><g><circle cx="118.82" cy="44" fill="#edf4fc" r="4.796"/></g></g><g><g><path d="m138.71 39.234c-2.632-.292-5.003 1.604-5.296 4.237s1.604 5.003 4.237 5.296c2.632.292 5.003-1.604 5.296-4.237.292-2.633-1.605-5.004-4.237-5.296z" fill="#edf4fc"/></g></g><g><g><path d="m158.07 39.234c-2.632-.292-5.003 1.604-5.296 4.237-.293 2.632 1.604 5.003 4.237 5.296 2.632.292 5.003-1.604 5.296-4.237s-1.605-5.004-4.237-5.296z" fill="#edf4fc"/></g></g><g><g><path d="m87.456 178.38-7.669-3.781c-.81-.399-1.544-.905-2.195-1.493l-11.972 13.855c-.849.983-.741 2.469.242 3.318l5.13 4.433c.983.849 2.469.741 3.318-.242l13.768-15.934z" fill="#edf4fc"/></g></g><g><g><path d="m57.445 186.961-11.972-13.855c-.651.587-1.386 1.093-2.195 1.493l-7.669 3.781-.622.157 13.768 15.934c.849.983 2.335 1.091 3.318.242l5.13-4.433c.983-.851 1.091-2.336.242-3.319z" fill="#edf4fc"/></g></g><g><g><path d="m117.471 193.92c-.268-4.817-3.638-8.901-8.317-10.079l-21.076-5.305-13.767 15.934c-.849.983-2.335 1.091-3.318.242l-5.13-4.433c-.588-.508-.856-1.244-.8-1.964h-7.059c.056.72-.212 1.456-.8 1.964l-5.13 4.433c-.983.849-2.469.741-3.318-.242l-13.768-15.934-21.076 5.305c-4.679 1.178-8.049 5.261-8.317 10.079l-3.089 56.344c-.098 1.757 1.301 3.236 3.06 3.236h111.934c1.76 0 3.158-1.479 3.06-3.236z" fill="#dae6f1"/></g></g><g><g><path d="m65.862 190.279c-.588-.508-.856-1.244-.8-1.964h-7.059c.056.72-.212 1.456-.8 1.964l-3.804 3.287 4.298 6.749h7.672l4.298-6.749z" fill="#70d6f9"/></g></g><g><g><path d="m70.563 244.196-5.194-43.881h-7.672l-5.812 43.202c-.142 1.029.206 2.064.941 2.798l5.791 5.791c1.611 1.611 4.222 1.611 5.833 0l5.166-5.166c.72-.72 1.069-1.732.947-2.744z" fill="#70d6f9"/></g></g><g><g><path d="m74.404 165.942v-4.756c-3.955 2.153-8.48 3.379-13.278 3.379-4.473 0-8.707-1.072-12.465-2.961v4.338c0 2.772-1.19 5.361-3.188 7.164l11.972 13.855c.341.395.521.871.558 1.354h7.059c.038-.483.217-.959.558-1.354l11.972-13.855c.003.003.006.005.009.007-2.003-1.803-3.197-4.395-3.197-7.171z" fill="#f9c1a8"/></g></g><g><g><path d="m221.996 111.301c-.016-.792-.65-1.446-1.442-1.469-11.607-.34-17.722-4.94-20.072-7.244-.642-.629-1.677-.563-2.236.141-10.205 12.833-25.259 11.022-30.32 9.963-.92-.192-1.802.501-1.803 1.441v22.494c0 15.366 12.573 27.939 27.939 27.939 15.366 0 27.939-12.573 27.939-27.939v-24.888c-.001-.147-.002-.292-.005-.438z" fill="#f9c1a8"/></g></g><g><g><path d="m215.924 81.666c-2.977 0-5.761.841-8.153 2.276-2.794-4.663-7.884-7.811-13.686-7.811h-8.195c-15.861 0-28.839 12.978-28.839 28.839v12.922c1.996-1.597 4.523-2.558 7.278-2.558.61 0 1.208.052 1.793.142v-1.343c.001-.94.883-1.633 1.803-1.441 5.061 1.059 20.115 2.87 30.32-9.963.559-.703 1.595-.77 2.236-.141 2.35 2.303 8.465 6.904 20.072 7.244.792.023 1.427.676 1.442 1.469.003.145.004.291.004.437v3.737c.585-.091 1.183-.142 1.793-.142 3.144 0 5.993 1.25 8.09 3.273v-20.981c.001-8.778-7.18-15.959-15.958-15.959z" fill="#414344"/></g></g><g><g><path d="m223.793 115.333c-.61 0-1.208.051-1.793.142v21.151c0 .63-.029 1.254-.07 1.874.608.098 1.227.163 1.863.163 6.442 0 11.665-5.223 11.665-11.665s-5.223-11.665-11.665-11.665z" fill="#f9c1a8"/></g></g><g><g><path d="m166.122 136.626v-21.151c-.585-.091-1.183-.142-1.793-.142-6.442 0-11.665 5.223-11.665 11.665s5.222 11.665 11.665 11.665c.636 0 1.255-.065 1.863-.163-.041-.621-.07-1.244-.07-1.874z" fill="#f9c1a8"/></g></g><g><g><path d="m250.406 193.92c-.268-4.817-3.638-8.901-8.317-10.079l-21.698-5.461-7.669-3.781c-3.296-1.625-5.383-4.981-5.383-8.657v-4.756c-3.955 2.154-8.48 3.379-13.278 3.379-4.473 0-8.707-1.072-12.465-2.961v4.338c0 3.675-2.087 7.031-5.383 8.657l-7.669 3.781-21.698 5.461c-4.679 1.178-8.049 5.261-8.317 10.079l-3.089 56.344c-.098 1.757 1.301 3.235 3.06 3.235h111.935c1.76 0 3.158-1.479 3.06-3.235z" fill="#70d6f9"/></g></g><g><g><path d="m212.722 174.599c-3.296-1.625-5.383-4.981-5.383-8.657v-4.756c-3.955 2.154-8.48 3.379-13.278 3.379-4.473 0-8.707-1.072-12.465-2.961v4.338c0 3.675-2.087 7.031-5.383 8.657l-1.204.594c3.64 7.062 11.007 11.923 19.459 11.923 8.453 0 15.82-4.861 19.459-11.923z" fill="#f9c1a8"/></g></g><g><g><g><path d="m224.495 111.252c-.042-2.137-1.743-3.857-3.869-3.918-10.917-.32-16.501-4.674-18.395-6.53-.81-.794-1.918-1.202-3.051-1.14-1.131.07-2.185.62-2.892 1.51-9.167 11.527-22.533 10.185-27.852 9.071-1.185-.248-2.405.048-3.346.812-.933.757-1.468 1.877-1.469 3.095v22.475c0 16.784 13.655 30.439 30.439 30.439s30.44-13.656 30.44-30.44v-24.888zm-4.995 25.374c0 14.027-11.412 25.439-25.439 25.439s-25.439-11.412-25.439-25.439v-21.258c5.871.999 20.523 1.966 30.901-10.257 3.126 2.758 9.36 6.653 19.977 7.182z"/></g></g></g><g><g><path d="m215.924 79.166c-2.525 0-5.026.531-7.346 1.55-3.483-4.419-8.848-7.086-14.493-7.086h-8.195c-17.28 0-31.339 14.059-31.339 31.339v12.126c0 1.381 1.119 2.5 2.5 2.5s2.5-1.119 2.5-2.5v-12.126c0-14.523 11.815-26.339 26.339-26.339h8.195c4.682 0 9.104 2.527 11.542 6.597.341.568.894.979 1.537 1.14.643.162 1.324.061 1.893-.281 2.094-1.255 4.469-1.919 6.867-1.919 7.421 0 13.459 6.038 13.459 13.459v19.708c0 1.381 1.119 2.5 2.5 2.5s2.5-1.119 2.5-2.5v-19.709c0-10.179-8.28-18.459-18.459-18.459z"/></g></g><g><g><path d="m233.165 204.676c-1.381 0-2.5 1.119-2.5 2.5v45.604c0 1.381 1.119 2.5 2.5 2.5s2.5-1.119 2.5-2.5v-45.604c0-1.381-1.12-2.5-2.5-2.5z"/></g></g><g><g><path d="m155.77 204.676c-1.381 0-2.5 1.119-2.5 2.5v45.604c0 1.381 1.119 2.5 2.5 2.5s2.5-1.119 2.5-2.5v-45.604c0-1.381-1.119-2.5-2.5-2.5z"/></g></g><g><g><path d="m223.793 112.833c-.374 0-.743.016-1.109.045-1.376.113-2.4 1.319-2.288 2.695.113 1.378 1.318 2.395 2.695 2.289.231-.02.465-.029.702-.029 5.053 0 9.165 4.111 9.165 9.165 0 5.053-4.111 9.164-9.165 9.164-.27 0-.536-.016-.798-.041-1.377-.146-2.598.866-2.735 2.24-.136 1.374.867 2.599 2.241 2.734.426.043.856.066 1.292.066 7.811 0 14.165-6.354 14.165-14.164s-6.354-14.164-14.165-14.164z"/></g></g><g><g><path d="m165.025 136.13c-.229.021-.461.032-.696.032-5.053 0-9.165-4.111-9.165-9.164 0-5.054 4.111-9.165 9.165-9.165.251 0 .499.012.744.032 1.366.122 2.585-.905 2.7-2.282.116-1.376-.906-2.585-2.282-2.7-.383-.032-.771-.05-1.162-.05-7.811 0-14.165 6.354-14.165 14.165s6.354 14.164 14.165 14.164c.386 0 .768-.019 1.145-.052 1.375-.124 2.389-1.34 2.265-2.715-.123-1.374-1.339-2.392-2.714-2.265z"/></g></g><g><g><path d="m255.991 250.128-3.089-56.347c-.331-5.942-4.431-10.911-10.203-12.365l-21.441-5.396-7.431-3.664c-2.46-1.213-3.989-3.671-3.989-6.414v-3.9c0-1.381-1.119-2.5-2.5-2.5s-2.5 1.119-2.5 2.5v3.9c0 4.661 2.597 8.837 6.778 10.898l7.669 3.781c.158.078.324.139.495.183l21.698 5.46c3.638.917 6.223 4.049 6.432 7.792l3.089 56.348c.011.2-.077.338-.153.419s-.21.177-.411.177h-111.935c-.201 0-.334-.096-.411-.177s-.165-.219-.154-.422l3.089-56.343c.208-3.745 2.793-6.877 6.431-7.793l21.698-5.461c.171-.044.337-.104.495-.183l7.669-3.781c4.181-2.061 6.778-6.237 6.778-10.898v-3.442c0-1.381-1.119-2.5-2.5-2.5s-2.5 1.119-2.5 2.5v3.442c0 2.743-1.528 5.201-3.989 6.414l-7.431 3.664-21.441 5.396c-5.771 1.453-9.872 6.423-10.202 12.366l-3.089 56.343c-.084 1.521.467 3.027 1.514 4.133 1.046 1.106 2.52 1.741 4.043 1.741h111.935c1.523 0 2.997-.635 4.043-1.741 1.047-1.106 1.598-2.612 1.513-4.13z"/></g></g><g><g><path d="m214.888 173.441c-1.212-.661-2.731-.212-3.392.999-3.419 6.276-9.944 10.175-17.029 10.175-7 0-13.487-3.83-16.93-9.996-.672-1.206-2.194-1.639-3.401-.964-1.206.673-1.637 2.196-.964 3.401 4.325 7.746 12.485 12.559 21.295 12.559 8.917 0 17.124-4.898 21.419-12.782.661-1.213.214-2.731-.998-3.392z"/></g></g><g><g><path d="m203.974 142.872c-1.058-.888-2.635-.746-3.521.311-1.265 1.509-3.431 2.41-5.794 2.41s-4.53-.901-5.794-2.41c-.886-1.057-2.462-1.198-3.521-.311s-1.198 2.463-.311 3.521c2.203 2.63 5.802 4.199 9.626 4.199s7.423-1.569 9.626-4.199c.887-1.058.748-2.634-.311-3.521z"/></g></g><g><g><path d="m213.215 127.331c-1.504-1.794-3.939-2.864-6.514-2.864s-5.01 1.07-6.514 2.864c-.887 1.058-.749 2.635.309 3.522 1.059.888 2.636.75 3.522-.31.557-.664 1.585-1.077 2.683-1.077s2.126.413 2.684 1.077c.494.59 1.203.894 1.917.894.567 0 1.137-.191 1.605-.585 1.057-.886 1.196-2.463.308-3.521z"/></g></g><g><g><path d="m189.187 127.331c-1.504-1.794-3.939-2.864-6.515-2.864s-5.01 1.07-6.514 2.864c-.887 1.058-.749 2.635.309 3.522 1.059.888 2.636.75 3.522-.31.557-.664 1.585-1.077 2.683-1.077s2.126.413 2.684 1.077c.494.59 1.203.894 1.917.894.566 0 1.137-.191 1.605-.584 1.058-.887 1.196-2.464.309-3.522z"/></g></g><g><g><path d="m89.061 111.301c-.016-.792-.65-1.446-1.442-1.469-11.607-.34-17.722-4.94-20.072-7.244-.642-.629-1.677-.563-2.236.141-10.205 12.833-25.258 11.022-30.32 9.963-.92-.192-1.802.501-1.803 1.441v22.494c0 15.366 12.573 27.939 27.939 27.939 15.366 0 27.939-12.573 27.939-27.939v-24.888c-.001-.147-.002-.292-.005-.438z" fill="#f9c1a8"/></g></g><g><g><path d="m82.989 81.666c-2.977 0-5.761.841-8.153 2.276-2.794-4.663-7.884-7.811-13.686-7.811h-8.195c-15.861 0-28.839 12.978-28.839 28.839v12.922c1.996-1.597 4.523-2.558 7.278-2.558.61 0 1.208.052 1.793.142v-1.343c.001-.94.883-1.633 1.803-1.441 5.061 1.059 20.115 2.87 30.32-9.963.559-.703 1.595-.77 2.236-.141 2.35 2.303 8.465 6.904 20.072 7.244.792.023 1.427.676 1.442 1.469.003.145.004.291.004.437v3.737c.585-.091 1.182-.142 1.793-.142 3.144 0 5.993 1.25 8.09 3.273v-20.981c.002-8.778-7.18-15.959-15.958-15.959z" fill="#414344"/></g></g><g><g><path d="m90.858 115.333c-.61 0-1.208.051-1.793.142v21.151c0 .63-.029 1.254-.07 1.874.608.098 1.227.163 1.863.163 6.442 0 11.665-5.223 11.665-11.665s-5.222-11.665-11.665-11.665z" fill="#f9c1a8"/></g></g><g><g><path d="m33.187 136.626c0-2.895 0-15.396 0-21.151-.585-.091-1.183-.142-1.793-.142-6.442 0-11.665 5.223-11.665 11.665s5.222 11.665 11.665 11.665c.636 0 1.255-.065 1.863-.163-.041-.621-.07-1.244-.07-1.874z" fill="#f9c1a8"/></g></g><g><g><g><path d="m91.561 111.252c-.042-2.137-1.743-3.857-3.869-3.918-10.917-.32-16.501-4.674-18.396-6.53-.81-.794-1.919-1.212-3.051-1.14-1.13.07-2.185.62-2.892 1.51-9.167 11.527-22.533 10.183-27.849 9.072-1.187-.252-2.406.046-3.347.81-.934.757-1.47 1.878-1.47 3.096v22.475c0 16.784 13.655 30.439 30.439 30.439s30.439-13.655 30.439-30.439v-24.888zm-4.996 25.374c0 14.027-11.412 25.439-25.439 25.439s-25.439-11.412-25.439-25.439v-21.258c5.871.999 20.522 1.966 30.901-10.257 3.126 2.758 9.36 6.653 19.977 7.182z"/></g></g></g><g><g><path d="m82.989 79.166c-2.525 0-5.026.531-7.346 1.55-3.483-4.419-8.848-7.086-14.493-7.086h-8.195c-17.28 0-31.339 14.059-31.339 31.339v12.126c0 1.381 1.119 2.5 2.5 2.5s2.5-1.119 2.5-2.5v-12.126c0-14.523 11.815-26.339 26.339-26.339h8.195c4.681 0 9.104 2.527 11.542 6.597.341.568.894.979 1.537 1.14.642.162 1.324.061 1.893-.281 2.094-1.255 4.468-1.919 6.867-1.919 7.421 0 13.459 6.038 13.459 13.459v20.354c0 1.381 1.119 2.5 2.5 2.5s2.5-1.119 2.5-2.5v-20.355c.001-10.179-8.28-18.459-18.459-18.459z"/></g></g><g><g><path d="m100.23 204.676c-1.381 0-2.5 1.119-2.5 2.5v45.604c0 1.381 1.119 2.5 2.5 2.5s2.5-1.119 2.5-2.5v-45.604c0-1.381-1.119-2.5-2.5-2.5z"/></g></g><g><g><path d="m22.835 204.676c-1.381 0-2.5 1.119-2.5 2.5v45.604c0 1.381 1.119 2.5 2.5 2.5s2.5-1.119 2.5-2.5v-45.604c0-1.381-1.119-2.5-2.5-2.5z"/></g></g><g><g><path d="m90.858 112.833c-.354 0-.704.014-1.05.04-1.377.104-2.409 1.305-2.305 2.682.103 1.376 1.3 2.409 2.681 2.305.223-.017.447-.026.674-.026 5.053 0 9.165 4.111 9.165 9.165 0 5.053-4.111 9.164-9.165 9.164-.276 0-.547-.016-.815-.044-1.372-.138-2.602.859-2.742 2.232-.141 1.373.858 2.601 2.231 2.742.451.046.897.069 1.326.069 7.811 0 14.165-6.354 14.165-14.164s-6.354-14.165-14.165-14.165z"/></g></g><g><g><path d="m31.395 117.833c.307 0 .609.017.907.048 1.372.144 2.601-.86 2.741-2.232.141-1.374-.859-2.602-2.232-2.742-.477-.049-.953-.073-1.416-.073-7.811 0-14.165 6.354-14.165 14.165s6.354 14.164 14.165 14.164c.455 0 .912-.025 1.398-.078 1.373-.147 2.365-1.381 2.218-2.753-.147-1.373-1.376-2.355-2.754-2.218-.283.03-.571.049-.862.049-5.054 0-9.165-4.111-9.165-9.164-.001-5.055 4.111-9.166 9.165-9.166z"/></g></g><g><g><path d="m71.039 142.872c-1.059-.888-2.635-.746-3.521.311-1.265 1.509-3.431 2.41-5.794 2.41s-4.53-.901-5.794-2.41c-.885-1.057-2.462-1.198-3.521-.311s-1.198 2.463-.311 3.521c2.203 2.63 5.802 4.199 9.626 4.199s7.423-1.569 9.626-4.199c.887-1.058.748-2.634-.311-3.521z"/></g></g><g><g><circle cx="73.23" cy="128.056" r="3.676"/></g></g><g><g><path d="m50.3 124.38c-2.03 0-3.676 1.646-3.676 3.676s1.646 3.676 3.676 3.676 3.676-1.646 3.676-3.676-1.646-3.676-3.676-3.676z"/></g></g><g><g><g><path d="m90.463 177.785c-.261-.826-.931-1.459-1.771-1.672l-.366-.093-7.432-3.664c-.585-.289-1.132-.661-1.625-1.106-.499-.45-1.166-.68-1.83-.64-.671.041-1.298.352-1.737.86l-11.972 13.855c-.847.98-1.262 2.232-1.168 3.525s.687 2.472 1.667 3.319l5.13 4.433c.889.769 2.002 1.182 3.166 1.182.12 0 .24-.005.36-.014 1.292-.094 2.471-.686 3.319-1.666l13.768-15.934c.565-.654.752-1.558.491-2.385zm-17.947 14.939-4.907-4.24 10.38-12.013c.227.131.458.254.693.37l5.3 2.613z"/></g></g></g><g><g><g><path d="m59.336 185.326-11.972-13.855c-.439-.509-1.066-.819-1.737-.86-.667-.039-1.331.189-1.83.64-.493.445-1.04.817-1.625 1.106l-7.432 3.664-.366.093c-.841.212-1.511.845-1.772 1.672s-.074 1.73.493 2.387l13.769 15.935c.958 1.107 2.313 1.676 3.674 1.676 1.125 0 2.254-.388 3.169-1.179l5.131-4.433c.98-.848 1.572-2.026 1.667-3.319s-.321-2.547-1.169-3.527zm-8.787 7.399-11.466-13.271 5.301-2.613c.235-.116.466-.239.693-.37l10.38 12.014z"/></g></g></g><g><g><path d="m79.274 171.255c-1.506-1.355-2.37-3.292-2.37-5.313v-3.858c0-1.381-1.119-2.5-2.5-2.5s-2.5 1.119-2.5 2.5v3.858c0 3.436 1.467 6.728 4.024 9.03.478.43 1.076.642 1.672.642.684 0 1.365-.279 1.859-.827.924-1.027.841-2.608-.185-3.532z"/></g></g><g><g><path d="m64.75 185.814h-6.458c-1.381 0-2.5 1.119-2.5 2.5s1.119 2.5 2.5 2.5h6.458c1.381 0 2.5-1.119 2.5-2.5s-1.12-2.5-2.5-2.5z"/></g></g><g><g><path d="m48.661 160.042c-1.381 0-2.5 1.119-2.5 2.5v3.399c0 2.019-.861 3.953-2.363 5.308-1.025.925-1.106 2.506-.181 3.531.494.547 1.174.825 1.857.825.597 0 1.196-.213 1.674-.644 2.55-2.302 4.013-5.589 4.013-9.021v-3.399c0-1.38-1.119-2.499-2.5-2.499z"/></g></g><g><g><path d="m123.057 250.128-3.089-56.347c-.331-5.942-4.431-10.911-10.203-12.364l-21.076-5.305c-1.337-.33-2.698.477-3.035 1.814-.337 1.339.475 2.697 1.814 3.035l21.076 5.305c3.638.915 6.223 4.047 6.431 7.79l3.089 56.347c.011.201-.078.339-.154.42s-.209.177-.41.177h-111.935c-.201 0-.334-.096-.411-.177s-.165-.219-.153-.422l3.089-56.343c.209-3.745 2.793-6.877 6.432-7.792l21.075-5.305c1.339-.338 2.151-1.696 1.814-3.035s-1.694-2.146-3.035-1.814l-21.075 5.305c-5.771 1.453-9.872 6.422-10.203 12.366l-3.089 56.342c-.085 1.521.466 3.027 1.513 4.134 1.046 1.106 2.52 1.741 4.043 1.741h111.935c1.523 0 2.997-.635 4.043-1.741s1.598-2.613 1.514-4.131z"/></g></g><g><g><path d="m89.691 208.814h-14.848c-1.381 0-2.5 1.119-2.5 2.5s1.119 2.5 2.5 2.5h14.848c1.381 0 2.5-1.119 2.5-2.5s-1.119-2.5-2.5-2.5z"/></g></g><g><g><path d="m79.033 205.814c-1.381 0-2.5 1.119-2.5 2.5v14c0 1.381 1.119 2.5 2.5 2.5s2.5-1.119 2.5-2.5v-14c0-1.38-1.119-2.5-2.5-2.5z"/></g></g><g><g><path d="m70.667 191.995c-1.165-.744-2.71-.399-3.452.766l-3.956 6.211c-.742 1.164-.398 2.71.766 3.451.416.266.881.392 1.34.392.826 0 1.634-.409 2.111-1.157l3.956-6.211c.743-1.165.4-2.711-.765-3.452z"/></g></g><g><g><path d="m59.805 198.972-3.982-6.252c-.742-1.166-2.287-1.509-3.451-.766-1.165.741-1.508 2.287-.766 3.451l3.982 6.252c.477.749 1.285 1.157 2.111 1.157.459 0 .924-.126 1.34-.392 1.166-.74 1.508-2.286.766-3.45z"/></g></g><g><g><g><path d="m73.044 243.896-5.193-43.876c-.149-1.258-1.215-2.206-2.482-2.206h-7.672c-1.252 0-2.311.926-2.478 2.167l-5.812 43.195c-.247 1.792.37 3.627 1.65 4.906l5.791 5.791c1.292 1.291 2.988 1.937 4.684 1.937s3.393-.646 4.684-1.937l5.166-5.166c1.273-1.27 1.878-3.024 1.662-4.811zm-5.196 1.277-5.166 5.166c-.634.633-1.664.633-2.298 0l-5.791-5.791c-.18-.18-.267-.438-.231-.697l5.521-41.036h3.264l4.933 41.675c0 .002.001.004.001.007.03.25-.055.497-.233.676z"/></g></g></g><g><g><g><path d="m129 0c-28.899 0-52.41 19.343-52.41 43.117 0 18.181 13.965 34.5 34.749 40.608.583.172 1.066.563 1.36 1.104.306.563.372 1.214.188 1.832-1.287 4.319-3.354 8.384-6.145 12.082-1.186 1.573-1.2 3.705-.035 5.307.868 1.192 2.214 1.855 3.614 1.855.489 0 .985-.081 1.469-.249 7.391-2.559 17.467-7.88 23.502-18.703.378-.678 1.025-1.136 1.732-1.225 25.718-3.246 44.385-21.167 44.385-42.611.001-23.774-23.51-43.117-52.409-43.117zm7.398 80.768c-2.278.288-4.324 1.69-5.473 3.751-4.85 8.698-12.811 13.366-19.169 15.826 2.638-3.793 4.627-7.908 5.923-12.256.566-1.902.358-3.907-.587-5.646-.933-1.717-2.475-2.965-4.343-3.514-18.637-5.478-31.159-19.869-31.159-35.812 0-21.017 21.268-38.117 47.41-38.117s47.41 17.1 47.41 38.117c0 18.586-17.201 34.772-40.012 37.651z"/></g></g></g><g><g><path d="m75.444 17.882c-4.498-.837-8.043-4.31-8.898-8.716-.043-.221-.352-.221-.395 0-.855 4.406-4.4 7.879-8.898 8.716-.226.042-.226.345 0 .387 4.498.838 8.043 4.311 8.898 8.717.043.221.352.221.395 0 .855-4.406 4.4-7.879 8.898-8.717.226-.042.226-.344 0-.387z" fill="#f5c84c"/></g></g><g><g><path d="m20.49 150.486c-3.284-.612-5.873-3.147-6.497-6.365-.031-.162-.257-.162-.288 0-.624 3.217-3.213 5.753-6.497 6.365-.165.031-.165.252 0 .282 3.284.612 5.873 3.147 6.497 6.365.031.162.257.162.288 0 .624-3.217 3.213-5.753 6.497-6.365.165-.03.165-.251 0-.282z" fill="#fc657e"/></g></g><g><g><path d="m242.155 156.302h-2.329v-2.33c0-1.744-1.413-3.157-3.157-3.157s-3.157 1.413-3.157 3.157v2.33h-2.33c-1.744 0-3.157 1.413-3.157 3.157s1.413 3.157 3.157 3.157h2.33v2.33c0 1.744 1.413 3.157 3.157 3.157s3.157-1.414 3.157-3.157v-2.33h2.329c1.744 0 3.157-1.413 3.157-3.157.001-1.744-1.413-3.157-3.157-3.157z" fill="#87d147"/></g></g><g><g><circle cx="85.461" cy="3.377" fill="#70d6f9" r="3.377"/></g></g><g><g><circle cx="252.623" cy="139.377" fill="#f5c84c" r="3.377"/></g></g><g><g><g><path d="m99.46 36.704c-4.023 0-7.296 3.272-7.296 7.296s3.273 7.296 7.296 7.296c4.022 0 7.295-3.272 7.295-7.296s-3.273-7.296-7.295-7.296zm0 9.592c-1.266 0-2.296-1.03-2.296-2.296s1.03-2.296 2.296-2.296 2.295 1.03 2.295 2.296-1.029 2.296-2.295 2.296z"/></g></g></g><g><g><g><path d="m118.82 36.704c-4.022 0-7.295 3.272-7.295 7.296s3.273 7.296 7.295 7.296c4.023 0 7.296-3.272 7.296-7.296s-3.273-7.296-7.296-7.296zm0 9.592c-1.266 0-2.295-1.03-2.295-2.296s1.03-2.296 2.295-2.296c1.266 0 2.296 1.03 2.296 2.296s-1.03 2.296-2.296 2.296z"/></g></g></g><g><g><g><path d="m138.985 36.749c-3.994-.441-7.612 2.447-8.056 6.445s2.447 7.612 6.446 8.057c.272.03.542.045.81.045 3.665 0 6.833-2.765 7.247-6.49.443-3.998-2.448-7.613-6.447-8.057zm1.476 7.504c-.139 1.26-1.279 2.153-2.535 2.029-1.258-.141-2.168-1.277-2.028-2.535.13-1.173 1.127-2.043 2.28-2.043.084 0 .169.005.255.014 1.258.14 2.169 1.277 2.028 2.535z"/></g></g></g><g><g><g><path d="m158.345 36.749c-4-.441-7.612 2.447-8.056 6.445s2.447 7.612 6.446 8.057c.272.03.542.045.81.045 3.665 0 6.833-2.765 7.247-6.49.443-3.998-2.448-7.613-6.447-8.057zm1.477 7.504c-.14 1.26-1.279 2.153-2.535 2.029-1.258-.141-2.168-1.277-2.028-2.535.13-1.173 1.127-2.043 2.28-2.043.084 0 .169.005.255.014 1.258.14 2.168 1.277 2.028 2.535z"/></g></g></g></g></g></svg>