<svg id="Layer_1" enable-background="new 0 0 500 500" height="512" viewBox="0 0 500 500" width="512" xmlns="http://www.w3.org/2000/svg"><path d="m263.465 21.646c11.491-7.252 26.547-5.088 35.529 5.108 7.052 8.005 18.078 11.243 28.339 8.321 13.068-3.721 26.905 2.598 32.65 14.911 4.511 9.668 14.178 15.88 24.846 15.968 13.587.111 25.083 10.072 27.127 23.506 1.605 10.547 9.13 19.232 19.341 22.321 13.006 3.935 21.229 16.731 19.406 30.196-1.432 10.572 3.342 21.025 12.269 26.866 11.37 7.44 15.656 22.034 10.113 34.44-4.352 9.74-2.717 21.115 4.203 29.234 8.814 10.342 8.814 25.552 0 35.894-6.92 8.12-8.555 19.494-4.203 29.234 5.543 12.406 1.258 27.001-10.113 34.44-8.927 5.841-13.701 16.294-12.269 26.866 1.824 13.465-6.4 26.261-19.406 30.196-10.211 3.089-17.737 11.774-19.341 22.321-2.044 13.433-13.54 23.394-27.127 23.506-10.668.087-20.335 6.3-24.846 15.968-5.746 12.313-19.582 18.632-32.65 14.911-10.26-2.922-21.286.316-28.339 8.321-8.982 10.196-24.038 12.361-35.529 5.108-9.022-5.694-20.513-5.694-29.535 0-11.491 7.252-26.547 5.087-35.529-5.108-7.052-8.005-18.078-11.243-28.339-8.321-13.068 3.721-26.905-2.598-32.65-14.911-4.511-9.668-14.178-15.88-24.846-15.968-13.587-.111-25.083-10.072-27.127-23.506-1.605-10.547-9.13-19.232-19.341-22.321-13.006-3.935-21.229-16.731-19.406-30.196 1.432-10.572-3.342-21.025-12.269-26.866-11.37-7.44-15.656-22.034-10.113-34.44 4.352-9.74 2.717-21.115-4.203-29.234-8.814-10.342-8.814-25.553 0-35.894 6.92-8.12 8.555-19.494 4.203-29.234-5.543-12.406-1.258-27.001 10.113-34.44 8.927-5.841 13.701-16.294 12.269-26.866-1.824-13.465 6.4-26.261 19.406-30.196 10.211-3.089 17.737-11.774 19.341-22.321 2.044-13.433 13.54-23.394 27.127-23.506 10.668-.087 20.335-6.3 24.846-15.968 5.746-12.313 19.582-18.632 32.65-14.911 10.26 2.922 21.287-.316 28.339-8.321 8.982-10.196 24.038-12.36 35.529-5.108 9.022 5.694 20.513 5.694 29.535 0z" fill="#0fa50f"/><g fill="#fff"><path d="m100.953 214.849v32.207h38.97v19.323h-38.97v38.648h-22.223v-109.502h69.889v19.324z"/><path d="m164.238 195.525h42.513c25.766 0 38.648 12.025 38.648 36.071 0 14.279-5.369 24.799-16.103 31.562l15.62 41.869h-24.316l-12.722-36.716h-21.418v36.716h-22.223v-109.502zm42.835 53.785c5.045 0 8.91-1.582 11.594-4.75 2.682-3.166 4.026-7.433 4.026-12.803 0-5.367-1.396-9.581-4.187-12.641-2.792-3.06-6.71-4.589-11.755-4.589h-20.29v34.783z"/><path d="m286.3 214.849v25.604h38.971v19.001h-38.971v26.248h48.633v19.324h-70.855v-109.501h70.855v19.324z"/><path d="m375.51 214.849v25.604h38.971v19.001h-38.971v26.248h48.633v19.324h-70.855v-109.501h70.855v19.324z"/></g></svg>