<svg xmlns="http://www.w3.org/2000/svg" height="512pt" version="1.1" viewBox="0 0 512 512" width="512pt">
<g id="surface1">
<path d="M 512 256 C 512 397.386719 397.386719 512 256 512 C 114.613281 512 0 397.386719 0 256 C 0 114.613281 114.613281 0 256 0 C 397.386719 0 512 114.613281 512 256 Z M 512 256 " style=" stroke:none;fill-rule:nonzero;fill:rgb(0%,92.941176%,100%);fill-opacity:1;" />
<path d="M 340.289062 497.78125 C 440.261719 462.929688 512 367.851562 512 256 C 512 220.238281 504.65625 186.195312 491.410156 155.277344 L 415.824219 79.691406 L 96.015625 124.851562 L 188.703125 217.539062 L 133.96875 262 L 190.894531 318.925781 L 189.675781 348 Z M 340.289062 497.78125 " style=" stroke:none;fill-rule:nonzero;fill:rgb(2.745098%,74.509804%,90.980392%);fill-opacity:1;" />
<path d="M 294.5 373.644531 L 294.5 348 L 217.5 348 L 217.5 373.644531 C 217.5 385.265625 210.230469 395.648438 199.3125 399.625 L 80.914062 442.742188 C 126.699219 485.6875 188.273438 512 256 512 C 323.726562 512 385.300781 485.6875 431.085938 442.742188 L 312.6875 399.625 C 301.769531 395.648438 294.5 385.265625 294.5 373.644531 Z M 294.5 373.644531 " style=" stroke:none;fill-rule:nonzero;fill:rgb(98.039216%,65.098039%,55.686275%);fill-opacity:1;" />
<path d="M 431.085938 442.742188 L 312.6875 399.625 C 301.769531 395.648438 294.5 385.265625 294.5 373.644531 L 294.5 348 L 255.570312 348 L 255.570312 511.996094 C 255.714844 511.996094 255.855469 512 256 512 C 323.726562 512 385.300781 485.6875 431.085938 442.742188 Z M 431.085938 442.742188 " style=" stroke:none;fill-rule:nonzero;fill:rgb(87.843137%,57.647059%,50.196078%);fill-opacity:1;" />
<path d="M 191.640625 239.902344 C 191.640625 258.167969 176.835938 272.976562 158.570312 272.976562 C 140.304688 272.976562 125.5 258.167969 125.5 239.902344 C 125.5 221.640625 140.304688 206.832031 158.570312 206.832031 C 176.835938 206.832031 191.640625 221.640625 191.640625 239.902344 Z M 191.640625 239.902344 " style=" stroke:none;fill-rule:nonzero;fill:rgb(100%,74.509804%,66.666667%);fill-opacity:1;" />
<path d="M 389.640625 239.902344 C 389.640625 258.167969 374.835938 272.976562 356.570312 272.976562 C 338.304688 272.976562 323.5 258.167969 323.5 239.902344 C 323.5 221.640625 338.304688 206.832031 356.570312 206.832031 C 374.835938 206.832031 389.640625 221.640625 389.640625 239.902344 Z M 389.640625 239.902344 " style=" stroke:none;fill-rule:nonzero;fill:rgb(98.039216%,65.098039%,55.686275%);fill-opacity:1;" />
<path d="M 300.03125 363.714844 L 277.949219 375.058594 C 264.171875 382.136719 247.828125 382.136719 234.050781 375.058594 L 211.96875 363.714844 C 179.242188 346.902344 158.667969 313.203125 158.667969 276.410156 L 158.667969 190.335938 C 158.667969 136.578125 202.242188 93 256 93 C 309.757812 93 353.332031 136.578125 353.332031 190.332031 L 353.332031 276.410156 C 353.332031 313.203125 332.757812 346.902344 300.03125 363.714844 Z M 300.03125 363.714844 " style=" stroke:none;fill-rule:nonzero;fill:rgb(100%,80.392157%,74.509804%);fill-opacity:1;" />
<path d="M 256 93 C 255.855469 93 255.714844 93.003906 255.570312 93.003906 L 255.570312 380.351562 C 263.242188 380.421875 270.929688 378.664062 277.949219 375.058594 L 300.03125 363.714844 C 332.757812 346.902344 353.332031 313.203125 353.332031 276.410156 L 353.332031 190.332031 C 353.332031 136.578125 309.757812 93 256 93 Z M 256 93 " style=" stroke:none;fill-rule:nonzero;fill:rgb(100%,74.509804%,66.666667%);fill-opacity:1;" />
<path d="M 342.746094 190.5 L 362.746094 190.5 L 362.746094 277.5 L 342.746094 277.5 Z M 342.746094 190.5 " style=" stroke:none;fill-rule:nonzero;fill:rgb(89.803922%,34.117647%,6.27451%);fill-opacity:1;" />
<path d="M 149.097656 190.5 L 169.097656 190.5 L 169.097656 277.5 L 149.097656 277.5 Z M 149.097656 190.5 " style=" stroke:none;fill-rule:nonzero;fill:rgb(99.607843%,41.568627%,8.627451%);fill-opacity:1;" />
<path d="M 362.746094 233.210938 L 255.921875 250.917969 L 149.097656 233.210938 L 149.097656 110.628906 L 362.746094 110.628906 Z M 362.746094 233.210938 " style=" stroke:none;fill-rule:nonzero;fill:rgb(33.333333%,35.294118%,40%);fill-opacity:1;" />
<path d="M 255.167969 110.628906 L 255.167969 250.792969 L 255.921875 250.917969 L 362.746094 233.210938 L 362.746094 110.628906 Z M 255.167969 110.628906 " style=" stroke:none;fill-rule:nonzero;fill:rgb(25.490196%,28.627451%,32.156863%);fill-opacity:1;" />
<path d="M 393.179688 110.628906 L 404.691406 110.628906 L 404.691406 234.011719 L 393.179688 234.011719 Z M 393.179688 110.628906 " style=" stroke:none;fill-rule:nonzero;fill:rgb(33.333333%,35.294118%,40%);fill-opacity:1;" />
<path d="M 398.617188 110.628906 L 404.691406 110.628906 L 404.691406 234.011719 L 398.617188 234.011719 Z M 398.617188 110.628906 " style=" stroke:none;fill-rule:nonzero;fill:rgb(25.490196%,28.627451%,32.156863%);fill-opacity:1;" />
<path d="M 415.980469 272.976562 L 381.890625 272.976562 L 389.398438 227.921875 C 390.175781 223.261719 394.210938 219.84375 398.9375 219.84375 C 403.664062 219.84375 407.695312 223.261719 408.472656 227.921875 Z M 415.980469 272.976562 " style=" stroke:none;fill-rule:nonzero;fill:rgb(98.039216%,36.470588%,5.882353%);fill-opacity:1;" />
<path d="M 408.472656 227.921875 C 407.695312 223.261719 403.664062 219.84375 398.9375 219.84375 C 398.828125 219.84375 398.726562 219.851562 398.617188 219.855469 L 398.617188 272.972656 L 415.980469 272.972656 Z M 408.472656 227.921875 " style=" stroke:none;fill-rule:nonzero;fill:rgb(93.72549%,21.960784%,0%);fill-opacity:1;" />
<path d="M 96.019531 79.691406 L 415.824219 79.691406 L 415.824219 124.851562 L 96.019531 124.851562 Z M 96.019531 79.691406 " style=" stroke:none;fill-rule:nonzero;fill:rgb(25.490196%,28.627451%,32.156863%);fill-opacity:1;" />
<path d="M 255.167969 79.691406 L 415.824219 79.691406 L 415.824219 124.851562 L 255.167969 124.851562 Z M 255.167969 79.691406 " style=" stroke:none;fill-rule:nonzero;fill:rgb(13.72549%,15.294118%,16.862745%);fill-opacity:1;" />
<path d="M 71.398438 433.351562 C 117.765625 481.601562 182.863281 511.710938 254.125 511.988281 L 254.125 480 L 163.023438 399 Z M 71.398438 433.351562 " style=" stroke:none;fill-rule:nonzero;fill:rgb(49.411765%,52.156863%,58.823529%);fill-opacity:1;" />
<path d="M 440.601562 433.351562 C 394.234375 481.601562 329.136719 511.710938 257 511.988281 L 257 480 L 348.976562 399 Z M 440.601562 433.351562 " style=" stroke:none;fill-rule:nonzero;fill:rgb(43.921569%,46.666667%,53.72549%);fill-opacity:1;" />
</g>
</svg>