<svg id="Capa_1" enable-background="new 0 0 512 512" height="512" viewBox="0 0 512 512" width="512" xmlns="http://www.w3.org/2000/svg"><g><g><path d="m128.91 419.228c-4.863-2.607-7.91-7.69-7.91-13.228v-45.835c-67.412-7.485-121-64.79-121-134.165 0-74.443 61.557-135 136-135h240c74.443 0 136 60.557 136 135s-61.557 135-136 135h-145.459l-86.221 57.48c-4.671 3.097-10.562 3.331-15.41.748z" fill="#ffdb66"/></g><path d="m376 91h-120v270h120c74.443 0 136-60.557 136-135s-61.557-135-136-135z" fill="#ffbc36"/><g><path d="m286 151c-8.291 0-15 6.709-15 15v120c0 8.291 6.709 15 15 15s15-6.709 15-15v-120c0-8.291-6.709-15-15-15z" fill="#593b35"/><path d="m346 151c-8.291 0-15 6.709-15 15v60c0 8.291 6.709 15 15 15s15-6.709 15-15v-60c0-8.291-6.709-15-15-15z" fill="#593b35"/><path d="m226 151c-8.291 0-15 6.709-15 15v45h-30v-45c0-8.291-6.709-15-15-15s-15 6.709-15 15v120c0 8.291 6.709 15 15 15s15-6.709 15-15v-45h30v45c0 8.291 6.709 15 15 15s15-6.709 15-15v-120c0-8.291-6.709-15-15-15z" fill="#80564d"/><circle cx="346" cy="286" fill="#593b35" r="15"/></g></g></svg>