<svg id="Capa_1" enable-background="new 0 0 512 512" height="512" viewBox="0 0 512 512" width="512" xmlns="http://www.w3.org/2000/svg"><g><path d="m71.349 406.129v79.191c0 2.845 2.306 5.151 5.151 5.151h359c2.845 0 5.151-2.306 5.151-5.151v-79.191z" fill="#fe9901"/><path d="m118.986 485.32v-78.191h-47.637v78.191c0 2.845 2.306 5.151 5.151 5.151h47.637c-2.845 0-5.151-2.306-5.151-5.151z" fill="#fb8801"/><g><path d="m117.455 165.286c1.347.552 2.08 2.016 1.792 3.443l-16.614 82.171 73.515 54.413 30.144-74.698-60.759-68.843c-.973-1.103-1.076-2.758-.173-3.92 4.849-6.237 6.554-14.789 3.561-22.964-3.862-10.547-14.828-17.051-25.931-15.353-14.335 2.193-23.209 16.21-19.562 29.822 2.008 7.494 7.364 13.195 14.027 15.929z" fill="#fee45a"/><g><g><path d="m117.455 165.286c1.347.552 2.08 2.016 1.792 3.443l-16.395 81.089 14.097 10.434 19.812-97.985c.288-1.427-.445-2.891-1.792-3.443-6.663-2.733-12.019-8.435-14.027-15.928-2.356-8.793.518-17.75 6.709-23.585-1.538-.075-3.096-.015-4.66.224-14.335 2.193-23.209 16.21-19.562 29.822 2.007 7.494 7.363 13.195 14.026 15.929z" fill="#fedf30"/></g></g><path d="m366.486 161.75-60.778 68.864 30.144 74.698 73.515-54.413-16.608-82.139c-.291-1.44.444-2.923 1.803-3.482 7.048-2.897 12.63-9.117 14.33-17.265 2.445-11.724-4.402-23.67-15.755-27.48-13.19-4.426-27.177 3.221-30.723 16.455-2.016 7.523-.206 15.169 4.235 20.875.897 1.153.802 2.793-.163 3.887z" fill="#fedf30"/><g><path d="m366.486 161.75-60.037 68.026 7.168 17.762 72.623-82.286c.966-1.094 1.06-2.735.163-3.886-4.442-5.706-6.251-13.352-4.235-20.875 2.296-8.57 8.974-14.792 16.976-16.915-1.815-1.273-3.825-2.311-6.006-3.042-13.19-4.426-27.177 3.221-30.723 16.455-2.016 7.523-.206 15.169 4.235 20.875.896 1.152.801 2.792-.164 3.886z" fill="#fed402"/></g></g><g><path d="m485.553 169.75c-11.056 1.146-19.999 10.054-21.196 21.105-.463 4.274.208 8.349 1.744 11.967.922 2.171.201 4.691-1.695 6.094l-128.941 95.438 41.474 102.774h63.711l40.841-185.732c.542-2.466 2.79-4.167 5.312-4.029 1.488.082 3.012.025 4.564-.188 11.05-1.516 19.74-10.723 20.565-21.846 1.104-14.873-11.421-27.134-26.379-25.583z" fill="#fed402"/><path d="m485.553 169.75c-11.056 1.146-19.999 10.054-21.196 21.105-.463 4.275.208 8.349 1.744 11.968.922 2.171.201 4.691-1.695 6.094l-128.11 94.823 5.807 14.389 137.392-101.694c1.896-1.403 2.616-3.923 1.695-6.094-1.536-3.619-2.207-7.693-1.744-11.968 1.197-11.051 10.14-19.958 21.196-21.105 1.7-.176 3.366-.166 4.986-.002-4.894-5.275-12.142-8.338-20.075-7.516z" fill="#fac600"/><path d="m135.06 407.129 41.474-102.774-128.941-95.438c-1.896-1.403-2.616-3.923-1.695-6.094 1.536-3.619 2.207-7.693 1.744-11.967-1.196-11.052-10.141-19.96-21.198-21.106-14.961-1.55-27.488 10.718-26.375 25.598.831 11.121 9.523 20.321 20.572 21.833 1.549.212 3.07.268 4.555.187 2.522-.138 4.77 1.562 5.312 4.029l40.841 185.732z" fill="#fed402"/><g><path d="m43.234 209.912c-.542-2.466-2.791-4.167-5.312-4.029-1.485.081-3.006.025-4.555-.187-11.049-1.512-19.741-10.713-20.572-21.833-.342-4.572.608-8.895 2.517-12.649-9.489 3.655-16.062 13.183-15.243 24.134.831 11.121 9.524 20.321 20.572 21.834 1.549.212 3.07.268 4.555.187 2.522-.138 4.77 1.562 5.312 4.029l40.841 185.732h16.752z" fill="#fac600"/></g></g><g><path d="m378.019 407.129-106.023-262.726c-.773-1.916-.327-4.109 1.134-5.57l22.463-22.463c2.012-2.012 2.012-5.273 0-7.284l-35.951-35.951c-2.012-2.012-5.273-2.012-7.285 0l-35.951 35.951c-2.012 2.012-2.012 5.273 0 7.284l22.463 22.463c1.461 1.461 1.908 3.654 1.134 5.57l-106.022 262.726z" fill="#fee45a"/></g><g><path d="m263.136 138.834-22.463-22.463c-2.012-2.012-2.012-5.273 0-7.285l27.46-27.46-8.491-8.491c-2.012-2.012-5.273-2.012-7.284 0l-35.951 35.951c-2.012 2.012-2.012 5.273 0 7.285l22.463 22.463c1.461 1.461 1.908 3.654 1.134 5.57l-106.023 262.725h24.267l106.022-262.726c.774-1.916.327-4.108-1.134-5.569z" fill="#fedf30"/></g><g><path d="m253.093 264.834-29.916 41.497c-.894 1.24-.903 2.91-.023 4.16l29.916 42.462c1.428 2.026 4.432 2.026 5.859 0l29.916-42.462c.88-1.25.871-2.92-.023-4.16l-29.916-41.497c-1.429-1.984-4.383-1.984-5.813 0z" fill="#925cb4"/></g><g><path d="m248.186 310.49c-.88-1.25-.871-2.92.023-4.16l20.307-28.168-9.609-13.329c-1.43-1.984-4.384-1.984-5.814 0l-29.916 41.497c-.894 1.24-.903 2.91-.023 4.16l29.916 42.462c1.428 2.026 4.432 2.026 5.859 0l9.587-13.607z" fill="#814ba2"/></g><g><g><circle cx="121" cy="447.386" fill="#fed402" r="7.5"/></g><g><circle cx="175" cy="447.386" fill="#fed402" r="7.5"/></g><g><circle cx="229" cy="447.386" fill="#fed402" r="7.5"/></g><g><circle cx="283" cy="447.386" fill="#fed402" r="7.5"/></g><g><circle cx="337" cy="447.386" fill="#fed402" r="7.5"/></g><g><circle cx="391" cy="447.386" fill="#fed402" r="7.5"/></g></g><g><path d="m174.558 23.718c5.287 15.173 11.455 21.341 26.628 26.628 2.919 1.017 2.919 5.134 0 6.151-15.173 5.287-21.341 11.455-26.628 26.628-1.017 2.919-5.134 2.919-6.151 0-5.287-15.173-11.455-21.341-26.628-26.628-2.919-1.017-2.919-5.134 0-6.151 15.173-5.287 21.341-11.455 26.628-26.628 1.017-2.919 5.134-2.919 6.151 0z" fill="#fe9901"/></g><g><g><path d="m155.557 43.535c-3.6 2.688-8.045 4.813-13.779 6.811-2.919 1.017-2.919 5.134 0 6.151 15.173 5.287 21.341 11.455 26.628 26.628 1.017 2.919 5.134 2.919 6.151 0 1.973-5.662 4.069-10.067 6.709-13.643-5.161-14.61-11.247-20.769-25.709-25.947z" fill="#fb8801"/></g></g><g><path d="m344.623 51.533c5.287 15.173 11.455 21.341 26.628 26.628 2.919 1.017 2.919 5.134 0 6.151-15.173 5.287-21.341 11.455-26.628 26.628-1.017 2.919-5.134 2.919-6.151 0-5.287-15.173-11.455-21.341-26.628-26.628-2.919-1.017-2.919-5.134 0-6.151 15.173-5.287 21.341-11.455 26.628-26.628 1.018-2.919 5.134-2.919 6.151 0z" fill="#fe9901"/></g><g><g><path d="m326.123 70.951c-3.689 2.874-8.27 5.117-14.279 7.21-2.919 1.017-2.919 5.134 0 6.151 15.173 5.287 21.341 11.455 26.628 26.628 1.017 2.919 5.134 2.919 6.151 0 2.051-5.886 4.242-10.405 7.032-14.055-5.142-14.586-11.195-20.764-25.532-25.934z" fill="#fb8801"/></g></g></g></svg>