<?xml version="1.0" encoding="UTF-8"?>
<svg xmlns="http://www.w3.org/2000/svg" id="Layer_1" data-name="Layer 1" viewBox="0 0 24 24">
  <path fill="white" d="m16.949,2.05c-1.321-1.322-3.079-2.05-4.949-2.05s-3.628.728-4.95,2.05c-2.729,2.729-2.729,7.17.008,9.907l2.495,2.44c.675.66,1.561.99,2.447.99s1.772-.33,2.447-.99l2.502-2.448c1.322-1.322,2.051-3.08,2.051-4.95s-.729-3.627-2.051-4.95Zm-4.949,7.94c-1.657,0-3-1.343-3-3s1.343-3,3-3,3,1.343,3,3-1.343,3-3,3Zm12,6.772c.002.354-.183.682-.485.863l-9.861,5.917c-.51.306-1.082.459-1.653.459s-1.144-.153-1.653-.459L.485,17.625c-.303-.182-.487-.51-.485-.863.002-.353.19-.679.495-.857l4.855-2.842c.1.11.203.219.309.325l2.495,2.439c1.028,1.006,2.395,1.561,3.846,1.561s2.817-.555,3.846-1.561l2.518-2.463c.098-.098.194-.199.287-.301l4.854,2.841c.305.179.493.505.495.857Z"/>
</svg>
