<svg height="150" viewBox="0 0 128 128" width="150" xmlns="http://www.w3.org/2000/svg"><g id="Married"><path d="m77.033 17.328c3.341 4.826 1.03 12.181-9.264 16.162a2.876 2.876 0 0 1 -2.082 0c-10.294-3.981-12.6-11.336-9.264-16.162 2.137-3.081 8.287-3.753 10.3.076 2.023-3.829 8.184-3.157 10.31-.076z" fill="#ff8878"/><path d="m119.79 108.41a19.447 19.447 0 0 0 -10.77-9.77c-.09-.04-.17-.08-.26-.11-.2-.08-.41-.17-.62-.25-.34-.15-.68-.32-1.03-.51a17.172 17.172 0 0 1 -2.23-1.43 12.938 12.938 0 0 1 -1.6-1.43 7.7 7.7 0 0 1 -1.564-2.356c-3.309-.407-6.6-.7-9.914-1.03a6.813 6.813 0 0 1 -1.862 3.386 12.938 12.938 0 0 1 -1.6 1.43 17.172 17.172 0 0 1 -2.23 1.43c-.35.19-.69.36-1.03.51-.21.08-.42.17-.62.25-.09.03-.17.07-.26.11a19.447 19.447 0 0 0 -10.77 9.77c-1.04 1.94.29 4.05 2.45 4.51a67.1 67.1 0 0 0 8.32 1.04l.85.06c.39.03.77.05 1.15.07 5.04.28 9.62.28 10.41.28s5.37 0 10.41-.28c.38-.02.76-.04 1.15-.07l.85-.06a67.1 67.1 0 0 0 8.32-1.04c2.16-.46 3.49-2.57 2.45-4.51z" fill="#fcf0d7"/><path d="m103.281 94.911a8.84 8.84 0 0 1 -13.355-.011 6.441 6.441 0 0 0 1.963-4.13c0-.34-.03-1.54-.03-1.54a17.9 17.9 0 0 0 4.646.167 18.436 18.436 0 0 0 4.847-.22s-.011 1.287-.011 1.593a6.329 6.329 0 0 0 1.94 4.141z" fill="#fca781"/><path d="m117.34 112.92a67.1 67.1 0 0 1 -8.32 1.04l-.85.06v-.01a80.126 80.126 0 0 0 -.03-15.73c.21.08.42.17.62.25.09.03.17.07.26.11a19.447 19.447 0 0 1 10.77 9.77c1.04 1.94-.29 4.05-2.45 4.51z" fill="#26918e"/><path d="m104.041 61.812c-3.336.907-7.863-.216-10.677-5.277a4.425 4.425 0 0 0 -7.376-.658c-1.259 1.566-2.292 5.367-2.553 7.319-.408 3.075-2.825 6.366-5.912 7.2a2.608 2.608 0 0 0 -.533.114h-.011a5.781 5.781 0 0 1 -4.142-.863c-4.777-2.927-4.993-11.71.42-16.555a27.949 27.949 0 0 0 6.1-7.852c2.45-4.595 7.239-9.452 18.155-9.429a16.265 16.265 0 0 1 3.472.635c-1.146-1.645-1.884-3.461.011-4.1 1.09-.363 3.177 1.759 3.9 3.847a3.33 3.33 0 0 1 4.9-.216c.715.874.386 2.553-1.872 2.78l.046.352a21.981 21.981 0 0 1 4.38 4.493c1.418 1.906 2.609 4.244 4.675 5.345 8.521 4.538 11.154 17.281 3.188 21.116a5.187 5.187 0 0 1 -3.937.318c-2.848-.9-5.2-4.074-6.559-7.024z" fill="#934463"/><path d="m77.523 70.4c3.087-.839 5.5-4.13 5.912-7.2.261-1.952 1.294-5.753 2.553-7.319a4.425 4.425 0 0 1 7.376.658c2.814 5.061 7.341 6.184 10.677 5.277l1.482-.737a2.836 2.836 0 0 1 1.641-.271 2.839 2.839 0 0 1 2.283 1.818l.279.744c1.362 2.95 3.711 6.128 6.559 7.024l-.046.125c1.714.488 2.531 1.861 2.326 4.527-.306 4.062-4.414 5.935-6.5 5.265l-.035-.022a17.057 17.057 0 0 1 -10.677 9.2 17.471 17.471 0 0 1 -4.743.635 17.716 17.716 0 0 1 -4.652-.612 17.045 17.045 0 0 1 -10.758-9.227l-.034.022c-2.1.67-6.2-1.2-6.513-5.265-.205-2.666.624-4.039 2.326-4.527h.011a3.965 3.965 0 0 0 .533-.115z" fill="#ffb38d"/><path d="m104.881 96.34c.386 4.607-4.414 8.953-8.272 1.612a8.826 8.826 0 0 0 6.672-3.041 12.948 12.948 0 0 0 1.6 1.429z" fill="#ff746a"/><path d="m89.926 94.9a8.854 8.854 0 0 0 6.683 3.053c-3.847 7.341-8.646 3-8.261-1.612a13.657 13.657 0 0 0 1.578-1.441z" fill="#ff746a"/><path d="m47.7 82.905a16.286 16.286 0 0 1 -10.253 9.095 14.412 14.412 0 0 1 -3.885.519 14.262 14.262 0 0 1 -4.031-.561 16.227 16.227 0 0 1 -10.107-9.048c-1.88.6-5.516-1.028-5.931-4.581a1.932 1.932 0 0 1 -.032-.239c-.176-2.191.416-3.428 1.673-3.978 2.384.92 2.654-8 4.29-14.01 1.602-5.887 9.576-8.102 15.66-7.796 11.978.6 12.494 8.671 13.19 9.065 1.8 3.221 1.067 13.37 4.505 13.266.7.675 1.008 1.786.883 3.448-.291 3.715-4.041 5.433-5.962 4.82z" fill="#ffb38d"/><path d="m52.893 108.719a17.243 17.243 0 0 0 -1.121-1.8c-2.244-3.2-5.475-5.516-9.921-7.251a5.365 5.365 0 0 1 -1.309-.727 8.63 8.63 0 0 1 -3.095-6.939v-.002a14.412 14.412 0 0 1 -3.885.519 14.262 14.262 0 0 1 -4.031-.561v.01c-.01 2.649-.935 5.464-2.96 6.971a5.084 5.084 0 0 1 -1.309.737 20.907 20.907 0 0 0 -9.536 6.742 16.538 16.538 0 0 0 -1.506 2.306c-.966 1.776.27 3.708 2.244 4.124 1.049.218 2.2.405 3.386.561a117.55 117.55 0 0 0 13.7.769 121.63 121.63 0 0 0 12.684-.645c1.548-.176 3.054-.394 4.415-.685 1.974-.421 3.2-2.348 2.244-4.129z" fill="#fca781"/><path d="m46.453 113.4-.218.124a121.63 121.63 0 0 1 -12.684.645 117.55 117.55 0 0 1 -13.7-.769c.675-5.973 6.794-7.053 10.949-2.493a3.181 3.181 0 0 0 2.347 1.059h.011a3.181 3.181 0 0 0 2.347-1.059c4.154-4.556 10.273-3.476 10.948 2.493z" fill="#fcf0d7"/><path d="m40.542 98.944a8.629 8.629 0 0 1 -3.095-6.939v-.005a16.286 16.286 0 0 0 10.253-9.095c1.921.613 5.671-1.1 5.962-4.82.125-1.662-.187-2.773-.883-3.448a4.846 4.846 0 0 0 2.607-.863c1.247 4-.9 7.386 2.4 13.7 3.833 7.344 7.168 12.133 5.08 15.862-1.32 2.358-6.337 3.438-9.578-.478 0 0 .665 1.371-1.516 4.062-2.244-3.2-5.475-5.516-9.921-7.251a5.365 5.365 0 0 1 -1.309-.725z" fill="#934463"/><path d="m58.908 55.513a110.175 110.175 0 0 0 -9.744-10.087c4.051 0 6.856-6.606 2.774-8.175s-14.5-4.467-17.919 2.192c-3.419-6.659-13.847-3.761-17.919-2.192s-1.028 8.071 3.033 8.082a107.506 107.506 0 0 0 -9.858 10.18c-5.183 5.848-3.739 11.842 1.891 15.041.561-13.712 7.333-26.966 21.087-27.288.177-.011.343-.011.519-.011 10.263 0 14.47 4.592 16.4 8.092a16.434 16.434 0 0 0 2.752 3.771c3.563 3.553 6.42 10.564 5.558 15.156h.01c5.218-3.262 6.454-9.074 1.416-14.761z" fill="#fceaca"/><path d="m57.5 70.274h-.01c.862-4.592-1.995-11.6-5.558-15.156a16.434 16.434 0 0 1 -2.752-3.771c-1.933-3.5-6.14-8.092-16.4-8.092-.176 0-.342 0-.519.011-13.761.322-20.534 13.576-21.095 27.288-5.63-3.2-7.074-9.193-1.891-15.041a107.506 107.506 0 0 1 9.858-10.18h.011c4.02-3.469 8.292-6.012 11.893-5.213a13.44 13.44 0 0 0 2.894.393h.319a13.245 13.245 0 0 0 2.887-.393c3.638-.814 7.972 1.794 12.027 5.306a110.175 110.175 0 0 1 9.744 10.087c5.038 5.687 3.802 11.499-1.408 14.761z" fill="#ffd3b6"/><path d="m51.927 55.118a16.434 16.434 0 0 1 -2.752-3.771c-1.933-3.5-6.14-8.092-16.4-8.092-.176 0-.342 0-.519.011-13.756.322-20.529 13.576-21.09 27.288a45.688 45.688 0 0 0 .384 8.009c1.766 12.954-7.105 17.437-7.323 23.258-.115 3.013 4.82 6.275 9.1 1.922a4.389 4.389 0 0 0 1.953 2.327l.447.343a20.907 20.907 0 0 1 9.536-6.742 5.084 5.084 0 0 0 1.309-.737c2.025-1.507 2.95-4.322 2.96-6.971v-.01a16.227 16.227 0 0 1 -10.107-9.048c-1.88.6-5.516-1.028-5.931-4.581a1.957 1.957 0 0 1 -.032-.239c-.176-2.191.416-3.428 1.673-3.978 3.365 1.3 7-1.361 8.819-12.736.53 2.213 3.958 6.119 8.591 6.462a16.8 16.8 0 0 0 7.728-.852 5.172 5.172 0 0 0 2.545-2.047 9.31 9.31 0 0 0 1.2 3.158c1.8 3.221 5.329 6.649 8.767 6.545a4.844 4.844 0 0 0 2.607-.863 5.138 5.138 0 0 0 2.1-3.5c.855-4.592-2.002-11.603-5.565-15.156z" fill="#934463"/><path d="m33.671 83.545a2.425 2.425 0 0 1 -2.037-1.1.717.717 0 1 1 1.2-.782 1.035 1.035 0 0 0 1.676-.007.717.717 0 1 1 1.193.8 2.444 2.444 0 0 1 -2.032 1.089z" fill="#ef6865"/><path d="m33.67 79.023a1 1 0 0 1 -.081-2 1.851 1.851 0 0 0 .6-.121 5.15 5.15 0 0 0 -.539-1.231 6.644 6.644 0 0 1 -.468-.99 1 1 0 1 1 1.9-.633 6.131 6.131 0 0 0 .333.675c.476.883 1.127 2.093.553 3.151a2.548 2.548 0 0 1 -2.207 1.144z" fill="#ef6865"/><path d="m23.177 69.148a1 1 0 0 1 -.5-1.865 8.805 8.805 0 0 1 4.684-1.312 1 1 0 1 1 0 2 6.779 6.779 0 0 0 -3.682 1.043 1 1 0 0 1 -.502.134z" fill="#934463"/><path d="m43.572 69.148a1 1 0 0 0 .5-1.865 8.813 8.813 0 0 0 -4.685-1.312 1 1 0 0 0 0 2 6.781 6.781 0 0 1 3.683 1.043 1 1 0 0 0 .502.134z" fill="#934463"/><path d="m84.931 64.514a1 1 0 0 1 -.508-1.862 9.443 9.443 0 0 1 5.1-1.432 1 1 0 0 1 0 2 7.491 7.491 0 0 0 -4.088 1.155 1 1 0 0 1 -.504.139z" fill="#934463"/><path d="m107.963 64.514a.983.983 0 0 1 -.506-.139 7.5 7.5 0 0 0 -4.089-1.155 1 1 0 0 1 0-2 9.448 9.448 0 0 1 5.1 1.432 1 1 0 0 1 -.508 1.862z" fill="#934463"/><g fill="#ef6865"><path d="m96.447 80.548a3.013 3.013 0 0 1 -2.535-1.379.837.837 0 0 1 1.4-.912 1.4 1.4 0 0 0 2.274 0 .837.837 0 1 1 1.4.914 3.028 3.028 0 0 1 -2.539 1.377z"/><path d="m96.447 75.361h-.08a2.7 2.7 0 0 1 -2.342-1.2c-.607-1.112.064-2.363.6-3.368a6.4 6.4 0 0 0 .375-.754 1 1 0 1 1 1.9.633 7.331 7.331 0 0 1 -.5 1.068 4.412 4.412 0 0 0 -.6 1.48 2.318 2.318 0 0 0 .736.144 1 1 0 0 1 -.078 2z"/><path d="m113.6 76.371a1 1 0 0 1 -.489-1.872 9.239 9.239 0 0 1 2.282-.939 1 1 0 1 1 .362 1.966 7.692 7.692 0 0 0 -1.667.717.992.992 0 0 1 -.488.128z"/><path d="m79.289 76.371a1 1 0 0 1 -.487-.127 7.683 7.683 0 0 0 -1.667-.718 1 1 0 1 1 .365-1.966 9.221 9.221 0 0 1 2.282.939 1 1 0 0 1 -.489 1.872z"/><path d="m49.7 79.323a1 1 0 0 1 -.651-1.759 4.565 4.565 0 0 1 1.874-.978 1 1 0 1 1 .363 1.967 2.734 2.734 0 0 0 -.935.529.992.992 0 0 1 -.651.241z"/><path d="m18.275 79.3a1 1 0 0 1 -.407-.087 9.086 9.086 0 0 0 -1.538-.543 1 1 0 0 1 .363-1.967 11.081 11.081 0 0 1 1.992.684 1 1 0 0 1 -.41 1.913z"/></g><path d="m32 101.929a.444.444 0 0 1 -.159-.03 11.31 11.31 0 0 1 -4.575-2.691l-.72-.7a.439.439 0 0 1 .608-.633l.716.7a10.4 10.4 0 0 0 4.289 2.51.439.439 0 0 1 -.159.848z" fill="#fff"/><path d="m35.337 101.929a.439.439 0 0 1 -.159-.848 10.389 10.389 0 0 0 4.284-2.505l.694-.675a.439.439 0 0 1 .609.633l-.7.68a11.179 11.179 0 0 1 -4.565 2.686.453.453 0 0 1 -.163.029z" fill="#fff"/><path d="m85.89 113.9a.484.484 0 0 1 0 .17c-.27-.01-.55-.03-.83-.05-.39-.03-.78-.05-1.18-.09a80.5 80.5 0 0 1 -.01-15.15c.02-.21.04-.41.07-.62a.993.993 0 0 1 1.11-.87 1.016 1.016 0 0 1 .87 1.12 79.927 79.927 0 0 0 -.03 15.49z" fill="#fff"/><path d="m109.02 113.96-.85.06c-.39.03-.77.05-1.15.07a.4.4 0 0 1 -.01-.19 79.067 79.067 0 0 0 -.03-15.49 1.075 1.075 0 0 1 .13-.64 1.034 1.034 0 0 1 .74-.48 1 1 0 0 1 1.12.87c.02.16.04.32.05.48a80.566 80.566 0 0 1 0 15.32z" fill="#fff"/><path d="m96.456 98.629a8.464 8.464 0 0 1 -6.374-2.91l-.158-.174a3.451 3.451 0 0 1 -.486-.648 1 1 0 0 1 1.706-1.046 1.718 1.718 0 0 0 .252.34l.19.21a6.434 6.434 0 0 0 9.727.012 3.743 3.743 0 0 0 .548-.72 1 1 0 0 1 1.717 1.028 5.646 5.646 0 0 1 -.763 1.012 8.435 8.435 0 0 1 -6.359 2.896z" fill="#fff"/><path d="m89.994 67.766v1.593a1.6 1.6 0 0 1 -3.2 0v-1.593a1.6 1.6 0 1 1 3.2 0z" fill="#934463"/><path d="m102.9 67.766v1.593a1.6 1.6 0 0 0 3.2 0v-1.593a1.6 1.6 0 1 0 -3.2 0z" fill="#934463"/><circle cx="33.661" cy="102.867" fill="#fff" r=".857"/><path d="m28.181 72.115v1.544a1.539 1.539 0 0 1 -3.078 0v-1.544a1.539 1.539 0 0 1 3.078 0z" fill="#934463"/><path d="m39.162 72.115v1.544a1.539 1.539 0 0 0 3.077 0v-1.544a1.539 1.539 0 0 0 -3.077 0z" fill="#934463"/><path d="m75.878 112.92a67.1 67.1 0 0 0 8.32 1.04l.85.06v-.01a80.126 80.126 0 0 1 .03-15.73c-.21.08-.42.17-.62.25-.09.03-.17.07-.26.11a19.447 19.447 0 0 0 -10.77 9.77c-1.04 1.94.29 4.05 2.45 4.51z" fill="#1b8782"/></g></svg>