<svg id="taking_x5F_note" enable-background="new 0 0 512 512" height="512" viewBox="0 0 512 512" width="512" xmlns="http://www.w3.org/2000/svg"><g><path d="m53.213 36.891c-9.332 3.557-13.441 7.666-16.996 16.998-.807 2.113-3.781 2.113-4.588 0-3.559-9.332-7.664-13.441-16.998-16.998-2.115-.807-2.115-3.781 0-4.586 9.334-3.559 13.439-7.666 16.998-16.998.807-2.115 3.781-2.115 4.588 0 3.555 9.332 7.664 13.439 16.996 16.998 2.113.804 2.113 3.779 0 4.586z" fill="#3fc4c1"/><g><path d="m498.953 23.375v390.734c0 5.717-4.633 10.373-10.371 10.373h-313.154c-5.695 0-10.375-4.656-10.375-10.373v-390.734c0-5.738 4.68-10.373 10.375-10.373h313.154c5.738 0 10.371 4.635 10.371 10.373z" fill="#ffa800"/><path d="m429.406 164.557v324.068c0 5.715-4.658 10.373-10.371 10.373h-313.135c-5.736 0-10.371-4.658-10.371-10.373v-390.734c0-5.738 4.635-10.373 10.371-10.373h241.986z" fill="#ffcd00"/><path d="m429.406 164.563h-71.121c-2.162 0-4.162-.652-5.805-1.777l-.158-.113-1.465-1.236c-1.842-1.867-2.967-4.434-2.967-7.246v-66.668z" fill="#fff"/></g><g fill="#fff"><path d="m379.438 362.002h-240.696c-3.105 0-5.625-2.518-5.625-5.625 0-3.105 2.52-5.625 5.625-5.625h240.695c3.107 0 5.625 2.52 5.625 5.625.001 3.107-2.517 5.625-5.624 5.625z"/><path d="m379.438 393.242h-240.696c-3.105 0-5.625-2.52-5.625-5.625 0-3.107 2.52-5.625 5.625-5.625h240.695c3.107 0 5.625 2.518 5.625 5.625.001 3.106-2.517 5.625-5.624 5.625z"/><path d="m379.438 424.482h-240.696c-3.105 0-5.625-2.518-5.625-5.625s2.52-5.625 5.625-5.625h240.695c3.107 0 5.625 2.518 5.625 5.625s-2.517 5.625-5.624 5.625z"/></g><path d="m429.406 164.563v74.459l-76.926-76.236c1.643 1.125 3.643 1.777 5.805 1.777z" fill="#ffa800"/><path d="m498.953 230.016v184.094c0 5.717-4.633 10.373-10.371 10.373h-59.176v-259.92z" fill="#ff8400"/><path d="m157.578 289.693 48.014 7.361c2.83.432 5.266-2.002 4.834-4.832l-7.363-48.016z" fill="#fff"/><path d="m68.035 109.182c-12.561-12.561-32.924-12.561-45.484 0h-.002c-12.559 12.559-12.559 32.924 0 45.484h.002l135.027 135.027 45.484-45.486z" fill="#3fc4c1"/><path d="m221.551 290.508-7.357-48.014-.563-3.627-2.609-2.607-115.493-115.516v15.93l107.527 107.529 7.357 48.014c.404 2.611-1.621 4.883-4.162 4.883-.225 0-.451-.021-.652-.043l-48.016-7.359-62.055-62.055v15.906l54.09 54.092 2.611 2.609 3.643.563 48.014 7.357c.789.137 1.578.18 2.365.18 4.5 0 8.797-1.957 11.744-5.4 2.948-3.421 4.232-7.966 3.556-12.442z" fill="#ffa800"/></g></svg>