<?xml version="1.0" encoding="UTF-8"?>
<svg xmlns="http://www.w3.org/2000/svg" id="Layer_1" data-name="Layer 1" viewBox="0 0 24 24" width="512" height="512">
    <path fill="#0156d3" d="m9.5,10.5c0-1.379,1.121-2.5,2.5-2.5s2.5,1.121,2.5,2.5-1.121,2.5-2.5,2.5-2.5-1.121-2.5-2.5Zm2.5,3.5c-2.319,0-4.408,1.577-4.969,3.75-.077.299-.011.618.179.862.189.244.48.387.79.387h8c.31,0,.601-.143.79-.387.189-.245.256-.563.179-.862-.561-2.173-2.649-3.75-4.969-3.75Zm10-6.5v11c0,3.033-2.467,5.5-5.5,5.5H7.5c-3.033,0-5.5-2.467-5.5-5.5V7.5c0-2.978,2.379-5.411,5.337-5.498.562-1.183,1.769-2.002,3.163-2.002h3c1.395,0,2.601.819,3.163,2.002,2.958.086,5.337,2.52,5.337,5.498Zm-3,0c0-1.378-1.122-2.5-2.5-2.5h-1c-.829,0-1.5-.671-1.5-1.5,0-.276-.224-.5-.5-.5h-3c-.276,0-.5.224-.5.5,0,.829-.671,1.5-1.5,1.5h-1c-1.378,0-2.5,1.122-2.5,2.5v11c0,1.378,1.122,2.5,2.5,2.5h9c1.378,0,2.5-1.122,2.5-2.5V7.5Z"/>
</svg>
