<svg id="Layer_1" enable-background="new 0 0 500 500" width="70" height="70" viewBox="0 0 500 500" xmlns="http://www.w3.org/2000/svg"><g clip-rule="evenodd" fill-rule="evenodd"><path d="m121.779 151.858c-24.345 32.385-7.156 65.217-33.987 97.08l-46.171 49.469c-4.874 5.223-4.942 13.079-.783 18.268h190.627v-85.894c0-3.178 2.592-5.77 5.77-5.77 4.789 0 8.426 1.015 12.209 4.124 14.631 12.025 37.034 1.699 37.034-17.513 0-19.214-22.405-29.537-37.034-17.513-3.783 3.109-7.419 4.124-12.209 4.124-3.178 0-5.77-2.592-5.77-5.77v-89.999c-44.768-.453-85.545 17.284-109.686 49.394z" fill="#ffbf31"/><path d="m43.795 296.077-2.175 2.33c-6.011 6.441-4.713 16.648 2.72 21.378l27.818 17.702c2.24 1.425 3.822 3.18 5.009 5.554l7.622 15.244 11.499 6.899-5.366 5.366 3.212 6.423c1.292 2.583 1.729 5.136 1.371 8.003l-3.628 29.026c-2.053 16.42 12.095 30.09 28.435 27.476l60.002-9.6c2.597-.416 5.007.32 6.928 2.116 1.922 1.796 2.817 4.15 2.581 6.768l1.362 27.228c.22 4.389 3.836 7.83 8.231 7.83h32.049v-179.743h-65.295c-3.177 0-5.77-2.592-5.77-5.77 0-4.789 1.015-8.427 4.124-12.209 12.025-14.63 1.7-37.034-17.513-37.034-19.212 0-29.538 22.404-17.513 37.034 3.109 3.782 4.124 7.42 4.124 12.209 0 3.178-2.592 5.77-5.77 5.77z" fill="#e33f65"/><g fill="#19cfba"><path d="m456.2 217.792c3.761-16.972 6.122-37.024 5.965-61.709-.561-87.884-80.549-131.216-148.307-131.902v89.999c0 3.178 2.592 5.77 5.77 5.77 4.789 0 8.426-1.015 12.209-4.124 14.63-12.025 37.034-1.699 37.034 17.513 0 19.211-22.402 29.539-37.034 17.513-3.782-3.109-7.42-4.124-12.209-4.124-3.178 0-5.77 2.592-5.77 5.77v65.296h65.296c3.178 0 5.77 2.592 5.77 5.77 0 4.789-1.015 8.427-4.124 12.209-12.025 14.631-1.699 37.034 17.513 37.034 19.213 0 29.537-22.405 17.513-37.034-3.109-3.783-4.124-7.419-4.124-12.209 0-3.178 2.592-5.77 5.77-5.77h38.728z"/><path d="m456.2 217.792c3.761-16.972 6.122-37.024 5.965-61.709-.506-79.248-65.595-122.263-128.064-130.456v65.83c0 3.178 2.592 5.77 5.77 5.77 4.789 0 8.426-1.015 12.209-4.124 14.63-12.025 37.034-1.699 37.034 17.513 0 12.541-9.547 21.294-20.247 22.517 0 .069.004.137.004.206 0 18.245-20.204 28.474-34.77 19.157v42.574h65.296c3.178 0 5.77 2.592 5.77 5.77 0 4.789-1.015 8.427-4.124 12.209-12.025 14.631-1.699 37.034 17.513 37.034.733 0 1.549-.014 2.422-.039.013-4.917-1.588-9.936-5.152-14.272-3.109-3.783-4.124-7.419-4.124-12.209 0-3.178 2.592-5.77 5.77-5.77h38.728z"/><path d="m460.066 195.069c1.416-11.609 2.192-24.5 2.099-38.987-.506-79.247-65.595-122.262-128.064-130.455v65.83c0 3.178 2.592 5.77 5.77 5.77 4.789 0 8.426-1.015 12.209-4.124 14.63-12.025 37.034-1.699 37.034 17.513 0 12.541-9.547 21.294-20.247 22.517 0 .069.004.137.004.206 0 18.245-20.204 28.474-34.77 19.157v42.574h65.296c3.178 0 5.77 2.592 5.77 5.77 0 4.789-1.015 8.427-4.124 12.209-12.025 14.631-1.699 37.034 17.513 37.034.824 0 1.63-.044 2.421-.124-.006-4.889-1.607-9.876-5.151-14.187-3.109-3.783-4.124-7.419-4.124-12.209 0-3.178 2.592-5.77 5.77-5.77h21.617c-2.957-6.228-7.144-7.107-7.144-16.953 0-3.178 2.592-5.77 5.77-5.77h22.351z"/></g><path d="m231.465 475.819h93.24c4.828 0 8.588-4.06 8.217-8.874-1.186-15.383-3.13-33.701-2.387-47.016 2.508-44.949 30.714-67.188 43.272-123.852h-38.624c-3.178 0-5.77 2.592-5.77 5.77 0 4.789 1.015 8.426 4.124 12.209 12.025 14.629 1.7 37.034-17.513 37.034-19.212 0-29.538-22.403-17.513-37.034 3.109-3.782 4.124-7.42 4.124-12.209 0-3.178-2.592-5.77-5.77-5.77h-65.401v65.296c0 3.178-2.592 5.77-5.77 5.77-4.789 0-8.426-1.015-12.209-4.124-14.631-12.025-37.034-1.699-37.034 17.513 0 19.213 22.405 29.538 37.034 17.513 3.783-3.109 7.419-4.124 12.209-4.124 3.178 0 5.77 2.592 5.77 5.77v76.128z" fill="#60b7fe"/><path d="m231.465 475.819h17.701v-179.742h-17.701v65.296c0 3.178-2.592 5.77-5.77 5.77-4.789 0-8.426-1.015-12.209-4.124-14.631-12.025-37.034-1.699-37.034 17.513 0 19.213 22.405 29.538 37.034 17.513 3.783-3.109 7.419-4.124 12.209-4.124 3.178 0 5.77 2.592 5.77 5.77z" fill="#4187b5"/></g></svg>