<svg id="Capa_1" enable-background="new 0 0 512 512" height="150" viewBox="0 0 512 512" width="150" xmlns="http://www.w3.org/2000/svg"><g><path d="m509.153 260c-4.807-7.215-13.206-24.032-13.206-53.448v-49.448c0-54.619-44.278-98.896-98.897-98.896h-32.966c-30.806 0-58.322 14.085-76.46 36.167l125.907 228.248c5.048 2.206 10.623 3.43 16.484 3.43 15.435 0 28.729-8.587 35.788-21.149 1.791.238 3.562.546 5.418.546 20.239 0 37.07-14.591 40.548-33.827.735-4.06-.329-8.191-2.616-11.623z" fill="#c6805d"/><path d="m372.326 152.894c-33.876-10.547-63.284-31.244-84.701-58.52-14.016 17.068-22.437 38.92-22.437 62.729v49.448c0 29.416-8.4 46.233-13.206 53.448-2.286 3.432-3.351 7.564-2.617 11.622 3.478 19.236 20.309 33.827 40.548 33.827 1.856 0 3.627-.308 5.419-.546 7.059 12.562 20.352 21.149 35.788 21.149 5.861 0 11.436-1.224 16.484-3.43h24.723v-169.727z" fill="#af6e4d"/><path d="m431.561 353.866-7.667-3.066c-6.258-2.503-10.361-8.564-10.361-15.304v-19.313l-42.446-.747-97.657 130.115c0 9.103 7.38 16.483 16.483 16.483h24.724l16.483-14.001h98.936l16.443 14.001h24.724c9.103 0 16.483-7.38 16.483-16.483z" fill="#fbbd80"/><path d="m364.084 335.506c0-7.721 6.381-13.829 14.099-13.609.792.023 1.587.034 2.384.034 11.577 0 22.641-2.093 32.966-5.748v-27.218h-65.931v46.53c0 6.74-4.103 12.801-10.361 15.304l-7.667 3.067-14.938 23.729 28.732-11.492c12.512-5.004 20.716-17.121 20.716-30.597z" fill="#f4aa73"/><path d="m495.947 437.31v-35.371c0-13.48-8.207-25.602-20.723-30.608l-43.663-17.465-37.279 24.852c-8.305 5.537-19.124 5.537-27.429 0l-20.799-13.868-51.902 6.481c-12.516 5.006-20.723 17.128-20.723 30.608v35.371c0 4.551 3.69 8.241 8.241 8.241h32.966l16.483 16.483h115.379v-16.483l7.665-11.201 8.818 11.201h24.724c4.552.001 8.242-3.689 8.242-8.241z" fill="#f2d1ff"/><path d="m495.721 203.784c-1.318-8.104-8.929-13.715-17.139-13.715h-15.6c-9.103 0-16.483-7.379-16.483-16.483v-5.391c0-4.803-4.091-8.635-8.874-8.193-4.633.427-9.314.685-14.06.685-29.182 0-56.635-7.299-80.746-20.066h-11.699l-23.453 87.612c3.671 42.121 29.828 76.235 72.901 76.235 5.657 0 11.181.41 16.518-.676 35.295-7.181 62.392-36.92 65.581-73.508.362-4.15 3.997-7.25 8.163-7.25h8.634c10.01.001 17.937-8.924 16.257-19.25z" fill="#ffd18d"/><path d="m331.119 223.034v-82.414c-9.103 0-16.483 7.379-16.483 16.483v16.483c0 9.103-7.38 16.483-16.483 16.483h-15.6c-8.211 0-15.821 5.61-17.139 13.714-1.68 10.327 6.246 19.251 16.257 19.251h8.634c4.166 0 7.801 3.099 8.163 7.249 3.671 42.12 39.026 75.164 82.099 75.164 5.625 0 11.21-.582 16.518-1.656-37.584-7.66-65.966-40.909-65.966-80.757z" fill="#fbbd80"/><path d="m347.602 214.793c-4.555 0-8.241-3.69-8.241-8.241v-8.241c0-4.551 3.686-8.241 8.241-8.241s8.241 3.69 8.241 8.241v8.241c0 4.551-3.686 8.241-8.241 8.241z" fill="#af6e4d"/><path d="m413.533 214.793c-4.555 0-8.241-3.69-8.241-8.241v-8.241c0-4.551 3.686-8.241 8.241-8.241s8.241 3.69 8.241 8.241v8.241c0 4.551-3.686 8.241-8.241 8.241z" fill="#af6e4d"/><path d="m380.567 263.107c-8.676 0-17.119-2.845-23.783-8.016-3.598-2.789-4.258-7.964-1.465-11.561 2.793-3.598 7.976-4.258 11.557-1.461 7.581 5.875 19.799 5.875 27.38 0 3.59-2.801 8.765-2.137 11.557 1.461 2.793 3.598 2.133 8.773-1.465 11.561-6.662 5.171-15.105 8.016-23.781 8.016z" fill="#f4aa73"/><path d="m228.102 169.465c0-8.829 7.147-18.339 5.27-26.599-1.939-8.528-12.552-13.992-16.264-21.687-3.774-7.82-1.472-19.512-6.836-26.229-5.39-6.75-17.313-7.09-24.063-12.479-6.717-5.363-9.685-16.923-17.504-20.695-7.693-3.711-18.565 1.135-27.092-.803-8.259-1.877-15.941-11.007-24.769-11.007-8.829 0-16.512 9.13-24.772 11.008-2.569.584-5.35.553-8.193.325l-33.805 139.503 181.11.218c1.01-1.553 1.786-3.19 2.188-4.959 1.878-8.259-5.27-17.768-5.27-26.596z" fill="#615260"/><path d="m83.877 61.3c-6.599-.528-13.523-2.117-18.901.478-7.82 3.773-10.788 15.334-17.505 20.699-6.75 5.39-18.672 5.731-24.062 12.481-5.363 6.717-3.06 18.408-6.832 26.228-3.712 7.693-14.324 13.157-16.262 21.684-1.877 8.259 5.27 17.768 5.27 26.596s-7.147 18.339-5.27 26.599c.383 1.685 1.105 3.25 2.046 4.737l81.517.078v-139.58z" fill="#4e3d4d"/><path d="m181.913 359.497-21.743-8.697c-6.258-2.503-10.361-8.564-10.361-15.304v-19.313l-44.568-.095-95.536 129.464c0 9.103 7.38 16.483 16.483 16.483h24.724l63.777-22.472 68.085 22.472h24.724c9.103 0 16.483-7.38 16.483-16.483z" fill="#af6e4d"/><path d="m100.36 335.506c0-7.721 6.381-13.829 14.099-13.609.792.023 1.587.034 2.384.034 11.577 0 22.641-2.093 32.966-5.748v-27.218h-65.932v46.53c0 6.74-4.103 12.801-10.361 15.304l-21.743 8.697-.861 18.099 28.732-11.492c12.512-5.004 20.716-17.121 20.716-30.597z" fill="#845252"/><path d="m211.5 371.332-29.587-11.835c-18.528 12.681-40.923 20.124-65.07 20.124-16.565 0-32.305-3.502-46.538-9.796l-39.038 1.507c-12.516 5.006-20.723 17.128-20.723 30.608v35.371l7.402 8.241h32.965l16.483 16.483h115.379v-16.483l8.476-8.269 8.007 8.269h24.724c4.552 0 8.241-3.69 8.241-8.241v-35.371c.001-13.48-8.205-25.603-20.721-30.608z" fill="#7ad7ee"/><path d="m231.997 203.783c-1.318-8.104-8.929-13.714-17.139-13.714h-15.6c-9.103 0-16.483-7.379-16.483-16.483v-16.482c0-9.104-7.38-16.483-16.483-16.483h-98.897l-16.235 82.291c3.671 42.12 22.61 81.23 65.683 81.23 5.627 0 16.434-.333 16.434-.333 35.337-7.15 62.474-36.908 65.666-73.525.362-4.15 3.997-7.25 8.163-7.25h8.634c10.01.001 17.937-8.924 16.257-19.251z" fill="#c6805d"/><path d="m67.395 223.034v-82.414c-9.103 0-16.483 7.379-16.483 16.483v16.483c0 9.103-7.38 16.483-16.483 16.483h-15.6c-8.211 0-15.821 5.61-17.139 13.714-1.68 10.327 6.246 19.251 16.257 19.251h8.634c4.166 0 7.801 3.099 8.163 7.249 3.671 42.12 39.026 75.164 82.099 75.164 5.625 0 11.125-.565 16.434-1.639-37.585-7.66-65.882-40.926-65.882-80.774z" fill="#af6e4d"/><path d="m83.877 214.793c-4.555 0-8.241-3.69-8.241-8.241v-8.241c0-4.551 3.686-8.241 8.241-8.241s8.241 3.69 8.241 8.241v8.241c.001 4.551-3.685 8.241-8.241 8.241z" fill="#70393c"/><path d="m149.809 214.793c-4.555 0-8.241-3.69-8.241-8.241v-8.241c0-4.551 3.686-8.241 8.241-8.241s8.241 3.69 8.241 8.241v8.241c0 4.551-3.686 8.241-8.241 8.241z" fill="#70393c"/><path d="m116.843 263.107c-8.676 0-17.119-2.845-23.783-8.016-3.598-2.789-4.258-7.964-1.465-11.561 2.793-3.598 7.976-4.258 11.557-1.461 7.581 5.875 19.799 5.875 27.38 0 3.59-2.801 8.765-2.137 11.557 1.461 2.793 3.598 2.133 8.773-1.465 11.561-6.662 5.171-15.105 8.016-23.781 8.016z" fill="#845252"/><path d="m28.312 386.635 41.992-16.81c-6.545-2.888-12.69-6.33-18.532-10.328l-29.587 11.835c-12.515 5.006-20.721 17.128-20.721 30.607v35.371c0 4.551 3.69 8.241 8.241 8.241h8.241v-43.613c0-6.776 4.065-12.784 10.366-15.303z" fill="#4bc3ef"/><path d="m292.037 386.635 54.017-21.784-16.48-10.985-43.663 17.465c-12.516 5.006-20.723 17.128-20.723 30.608v35.371c0 4.551 3.69 8.241 8.241 8.241h8.241v-43.613c.001-6.776 4.065-12.784 10.367-15.303z" fill="#dfbdf0"/><path d="m59.153 412.586c4.552 0 8.241 3.69 8.241 8.241v41.207h-16.482v-41.207c0-4.551 3.69-8.241 8.241-8.241z" fill="#4bc3ef"/><path d="m191.015 412.586c4.552 0 8.241 3.69 8.241 8.241v24.724h-16.483v-24.724c.001-4.551 3.691-8.241 8.242-8.241z" fill="#4bc3ef"/><g fill="#dfbdf0"><path d="m322.878 412.586c4.552 0 8.241 3.69 8.241 8.241v41.207h-16.483v-41.207c0-4.551 3.69-8.241 8.242-8.241z"/><path d="m454.74 412.586c4.552 0 8.241 3.69 8.241 8.241v24.724h-16.483v-24.724c0-4.551 3.69-8.241 8.242-8.241z"/></g></g></svg>