<svg id="Layer_1" enable-background="new 0 0 500 500" viewBox="0 0 500 500" width="70" height="70" xmlns="http://www.w3.org/2000/svg"><g clip-rule="evenodd" fill-rule="evenodd"><path d="m199.546 407.786c30.602 5.053 60.939 10.062 93.787 10.443 26.345.306 36.185.314 60.297-11.12l106.289-50.4c14.476-6.864 13.919-28.334-1.725-33.913-4.451-1.587-9.495-1.491-14.058.672l-81.606 38.7c-2.622 2.592-5.729 4.673-9.15 6.096-4.008 1.666-8.441 2.44-13.025 2.089l-69.14-5.302c-3.106-.231-5.436-2.937-5.204-6.042.231-3.106 2.937-5.436 6.042-5.204l69.14 5.302c5.524.423 10.841-1.848 14.375-5.968.483-.564 1.053-1.009 1.673-1.333.696-.994 1.29-2.065 1.765-3.199 4.491-10.708-2.905-22.859-14.544-23.752l-77.316-5.929c-.904-.03-1.813-.279-2.649-.767-35.351-20.632-68.831-25.89-103.666.279l-76.799 44.495 38.552 69.428 50.626-27.605c1.055-.588 2.307-.842 3.593-.643 8.348 1.296 15.554 2.486 22.743 3.673z" fill="#f0b16e"/><path d="m127.025 338.024 39.177 70.554-43.617 23.783-38.552-69.429z" fill="#cf8c48"/><path d="m75.937 219.208 51.978-32.799c21.541-13.592 47.324-13.592 68.865 0l51.978 32.799-51.978 32.799c-21.541 13.592-47.324 13.592-68.865 0zm390.055 0-51.978 32.799c-21.54 13.592-47.324 13.592-68.865 0l-51.978-32.799 51.978-32.799c21.541-13.592 47.324-13.592 68.865 0zm-154.355-78.149c-7.474 7.474-14.066 15.114-19.586 22.525l11.712-18.56c13.592-21.541 13.592-47.324 0-68.865l-32.799-51.978-32.799 51.978c-13.592 21.541-13.592 47.324 0 68.865l11.709 18.556c-5.519-7.41-12.111-15.049-19.583-22.521-29.661-29.661-61.95-45.462-72.119-35.293-10.17 10.17 5.631 42.459 35.293 72.12 29.661 29.661 61.95 45.462 72.119 35.293 5.236-5.236 3.587-16.337-3.294-29.923l8.674 13.746 8.677-13.75c-6.883 13.588-8.533 24.69-3.297 29.927 10.17 10.17 42.458-5.631 72.12-35.293 29.661-29.661 45.462-61.95 35.293-72.12-10.169-10.169-42.459 5.632-72.12 35.293z" fill="#19cfba"/><path d="m212.018 196.024 36.741 23.184-36.741 23.184c-5.842-14.84-5.842-31.528 0-46.368zm58.947-40.142c-8.183 0-16.004 1.552-23.184 4.379l2.094 3.319c-.787-1.057-1.596-2.119-2.427-3.184-15.763 6.309-28.399 18.771-34.937 34.417 23.35 18.278 45.067 26.372 53.074 18.366 5.236-5.236 3.587-16.337-3.294-29.923l8.674 13.746 8.677-13.75c-6.883 13.588-8.533 24.69-3.297 29.927 8.006 8.006 29.723-.087 53.073-18.365-6.537-15.647-19.173-28.108-34.937-34.418-.831 1.067-1.642 2.13-2.43 3.188l2.097-3.323c-7.179-2.826-15-4.379-23.183-4.379zm58.946 40.142c5.841 14.84 5.841 31.528 0 46.368l-36.741-23.184z" fill="#129182"/><circle cx="270.965" cy="219.208" fill="#e33f65" r="43.781"/><path d="m33.355 364.123 50.215-27.883c3.483-1.934 7.915-.667 9.85 2.816l54.486 98.125c1.934 3.483.667 7.915-2.816 9.849l-50.215 27.883c-3.483 1.934-7.915.667-9.849-2.817l-54.486-98.125c-1.935-3.482-.668-7.914 2.815-9.848z" fill="#60b7fe"/></g></svg>