<?xml version="1.0" encoding="UTF-8" standalone="no"?>
<!-- Created with Inkscape (http://www.inkscape.org/) -->

<svg
   version="1.1"
   id="svg1164"
   xml:space="preserve"
   width="682.66669"
   height="682.66669"
   viewBox="0 0 682.66669 682.66669"
   xmlns="http://www.w3.org/2000/svg"
   xmlns:svg="http://www.w3.org/2000/svg"><defs
     id="defs1168"><clipPath
       clipPathUnits="userSpaceOnUse"
       id="clipPath1178"><path
         d="M 0,512 H 512 V 0 H 0 Z"
         id="path1176" /></clipPath></defs><g
     id="g1170"
     transform="matrix(1.3333333,0,0,-1.3333333,0,682.66667)"><g
       id="g1172"><g
         id="g1174"
         clip-path="url(#clipPath1178)"><g
           id="g1180"
           transform="translate(256,236)"><path
             d="m 0,0 c -44.11,0 -80,35.89 -80,80 0,44.11 35.89,80 80,80 44.11,0 80,-35.89 80,-80 C 80,35.89 44.11,0 0,0 Z"
             style="fill:none;stroke:#000000;stroke-width:20;stroke-linecap:round;stroke-linejoin:round;stroke-miterlimit:10;stroke-dasharray:none;stroke-opacity:1"
             id="path1182" /></g><g
           id="g1184"
           transform="translate(106.6504,60.0298)"><path
             d="m 0,0 c 0.01,0.13 0.02,0.26 0.04,0.39 7.25,76.08 71.329,135.58 149.31,135.58 77.98,0 142.049,-59.49 149.32,-135.57"
             style="fill:none;stroke:#000000;stroke-width:20;stroke-linecap:round;stroke-linejoin:round;stroke-miterlimit:10;stroke-dasharray:none;stroke-opacity:1"
             id="path1186" /></g><g
           id="g1188"
           transform="translate(450,420)"><path
             d="m 0,0 c 0,-5.523 -4.478,-10 -10,-10 -5.522,0 -10,4.477 -10,10 0,5.523 4.478,10 10,10 C -4.478,10 0,5.523 0,0"
             style="fill:#000000;fill-opacity:1;fill-rule:nonzero;stroke:none"
             id="path1190" /></g><g
           id="g1192"
           transform="translate(466.4209,383.5923)"><path
             d="m 0,0 c 22.581,-37.189 35.579,-80.857 35.579,-127.592 0,-79.79 -37.89,-150.65 -96.68,-195.57 v -0.01 c -41.39,-31.64 -93.14,-50.42 -149.32,-50.42 -56.17,0 -107.92,18.78 -149.309,50.42 -58.791,44.92 -96.691,115.78 -96.691,195.58 0,135.96 110.02,246 246,246 56.871,0 109.207,-19.25 150.851,-51.598"
             style="fill:none;stroke:#000000;stroke-width:20;stroke-linecap:round;stroke-linejoin:round;stroke-miterlimit:10;stroke-dasharray:none;stroke-opacity:1"
             id="path1194" /></g></g></g></g></svg>
